<?xml version="1.0" standalone="no"?>
<!DOCTYPE svg PUBLIC "-//W3C//DTD SVG 1.1//EN" "http://www.w3.org/Graphics/SVG/1.1/DTD/svg11.dtd" >
<svg xmlns="http://www.w3.org/2000/svg" xmlns:xlink="http://www.w3.org/1999/xlink" version="1.1">
<metadata></metadata>
<defs>
<font id="lobster_tworegular" horiz-adv-x="993" >
<font-face units-per-em="2048" ascent="1638" descent="-410" />
<missing-glyph horiz-adv-x="440" />
<glyph unicode="&#xfb01;" horiz-adv-x="933" d="M-172 -326q0 57 23.5 103.5t60.5 83.5t85 64.5t97 47.5v1176q0 66 19.5 134.5t63.5 123.5t114.5 91t175.5 36q80 0 137.5 -20.5t96 -56.5t57 -81t18.5 -94q0 -72 -32.5 -99.5t-71.5 -27.5q-41 0 -74 25.5t-33 68.5q0 29 15.5 59.5t42.5 34.5q-12 57 -54.5 78t-87.5 21 q-55 0 -91 -25.5t-56.5 -69.5t-27.5 -102.5t-7 -122.5v-98h166v-72h-166v-1116q0 -104 -19.5 -170.5t-53 -106.5t-81 -55.5t-100.5 -15.5q-113 0 -165 52t-52 134zM-92 -307q0 -41 26.5 -70t67.5 -29q59 0 75.5 63.5t16.5 174.5v64q-92 -45 -139 -98.5t-47 -104.5zM586 285 v739h205v-696q0 -20 2 -51t11 -61t27.5 -51.5t51.5 -21.5q100 0 147 224h76q-23 -129 -57.5 -204t-73.5 -114t-80 -50t-74 -11q-72 0 -117 27.5t-71.5 70.5t-36.5 96.5t-10 102.5z" />
<glyph unicode="&#xfb02;" horiz-adv-x="933" d="M-172 -301q0 45 23.5 85t61.5 75t86 62.5t95 49.5v1178q0 61 8.5 129t38 124t87 94t157.5 38q70 0 122 -7t97 -21.5t89 -33t100 -38.5v-1106q0 -20 2 -51t11 -61t27.5 -51.5t51.5 -21.5q100 0 147 224h76q-23 -129 -57.5 -204t-73.5 -114t-80 -50t-74 -11 q-72 0 -116.5 27.5t-71.5 70.5t-37 96.5t-10 102.5v1110q-23 4 -48.5 7t-76.5 3q-55 0 -87 -20.5t-49.5 -57.5t-22.5 -89t-5 -116v-98h166v-72h-166v-1116q0 -111 -12.5 -178.5t-38 -105t-63.5 -51t-89 -13.5q-55 0 -103 12.5t-85 39t-58.5 65.5t-21.5 94zM-92 -307 q0 -41 25.5 -70t70.5 -29q57 0 73.5 66t16.5 172v64q-92 -45 -139 -98.5t-47 -104.5z" />
<glyph unicode="&#xfb03;" horiz-adv-x="1425" d="M-172 -330q0 98 74.5 172t191.5 127v1211q0 178 86 267t223 89q84 0 148.5 -38t97.5 -132q41 72 119 120t201 48q80 0 137 -20.5t96 -56.5t57.5 -81t18.5 -94q0 -72 -33 -99.5t-71 -27.5q-41 0 -74 25.5t-33 68.5q0 29 15.5 59.5t41.5 34.5q-12 57 -54 78t-87 21 q-55 0 -91 -25.5t-56.5 -69.5t-27.5 -102.5t-7 -122.5v-98h166v-72h-166v-1116q0 -109 -26.5 -176.5t-68.5 -106t-93.5 -52t-100.5 -13.5q-90 0 -146.5 36t-99.5 97q-35 -76 -92 -104.5t-129 -28.5q-113 0 -165 52t-52 130zM-92 -307q0 -41 26.5 -70t67.5 -29 q59 0 75.5 63.5t16.5 174.5v62q-94 -47 -140 -99.5t-46 -101.5zM287 -311q74 -94 170 -95q27 0 52.5 8.5t44.5 34t30.5 72.5t11.5 123v213q-86 -16 -160 -33.5t-137 -36.5v-139q0 -86 -12 -147zM299 43q74 23 149.5 39t147.5 31v839h-297v-909zM299 1024h297v156 q0 129 -36 177t-105 48q-51 0 -82 -20.5t-47.5 -58.5t-21.5 -90t-5 -114v-98zM1077 285v739h205v-696q0 -20 2 -51t11.5 -61t27.5 -51.5t51 -21.5q100 0 148 224h75q-23 -129 -57.5 -204t-73.5 -114t-79.5 -50t-73.5 -11q-72 0 -117 27.5t-71.5 70.5t-37 96.5t-10.5 102.5z " />
<glyph unicode="&#xfb04;" horiz-adv-x="1435" d="M-172 -330q0 98 74.5 172t191.5 127v1211q0 178 86 267t223 89q78 0 138.5 -31.5t95.5 -109.5q29 59 87 99t163 40q70 0 122 -7t97 -21.5t89 -33t99 -38.5v-1106q0 -20 2 -51t11.5 -61t28 -51.5t50.5 -21.5q100 0 148 224h76q-23 -129 -57.5 -204t-73.5 -114t-80 -50 t-74 -11q-72 0 -117 27.5t-71.5 70.5t-36.5 96.5t-10 102.5v1110q-23 4 -48.5 7t-76.5 3q-55 0 -87 -20.5t-49.5 -57.5t-22.5 -89t-5 -116v-98h166v-72h-166v-1116q0 -109 -26.5 -176.5t-68.5 -106t-93.5 -52t-100.5 -13.5q-90 0 -146.5 36t-99.5 97q-35 -76 -92 -104.5 t-129 -28.5q-113 0 -165 52t-52 130zM-92 -307q0 -41 26.5 -70t67.5 -29q59 0 75.5 63.5t16.5 174.5v62q-94 -47 -140 -99.5t-46 -101.5zM287 -311q74 -94 170 -95q27 0 52.5 8.5t44.5 34t30.5 72.5t11.5 123v213q-86 -16 -160 -33.5t-137 -36.5v-139q0 -86 -12 -147z M299 43q74 23 149.5 39t147.5 31v839h-297v-909zM299 1024h297v156q0 129 -36 177t-105 48q-51 0 -82 -20.5t-47.5 -58.5t-21.5 -90t-5 -114v-98z" />
<glyph horiz-adv-x="0" />
<glyph horiz-adv-x="682" />
<glyph unicode=" "  horiz-adv-x="440" />
<glyph unicode="&#x09;" horiz-adv-x="440" />
<glyph unicode="&#xa0;" horiz-adv-x="440" />
<glyph unicode="!" horiz-adv-x="489" d="M111 125q0 55 38.5 96t96.5 41q55 0 96 -41t41 -96q0 -57 -41 -96t-96 -39q-57 0 -96 39t-39 96zM129 1434h229l-63 -961h-109z" />
<glyph unicode="&#x22;" horiz-adv-x="677" d="M84 1149l43 387h174l-104 -387h-113zM410 1149l43 387h174l-105 -387h-112z" />
<glyph unicode="#" horiz-adv-x="1077" d="M68 289v135h251v258h-251v135h245v653h74v-653h289v653h74v-653h260v-135h-260v-258h260v-135h-260v-344h-74v344h-289v-344h-65v344h-254zM387 424h289v258h-289v-258z" />
<glyph unicode="$" horiz-adv-x="776" d="M57 485q0 68 30 105t71 37q49 0 96 -47q-35 -4 -48 -38t-13 -69q0 -43 15 -77t39.5 -57.5t54.5 -35.5t58 -14v422q-45 31 -91 60.5t-84 65t-61.5 81t-23.5 104.5q0 49 19.5 89t53.5 69.5t78 48t95 22.5v219h84v-219q45 -4 90 -17t81 -38t58.5 -63.5t22.5 -92.5 q0 -37 -14.5 -76.5t-46.5 -39.5q-10 0 -31 7t-47 30q16 18 23 43.5t7 48.5q0 53 -36.5 92t-114.5 47v-350q49 -29 100 -61.5t93 -74.5t69 -98.5t27 -130.5q0 -61 -23.5 -108t-64.5 -79t-96.5 -50.5t-120.5 -20.5v-274h-29l-6 274q-68 2 -125.5 20.5t-99.5 51.5t-65.5 82 t-23.5 112zM250 1049q0 -53 29.5 -92t70.5 -72v303q-55 -16 -77.5 -57t-22.5 -82zM412 291q57 8 93 51t36 113q0 72 -36 123t-93 92v-379z" />
<glyph unicode="%" horiz-adv-x="1257" d="M53 1104q0 72 16.5 133t49.5 105t78 70t104 26q68 0 113 -29t70.5 -75t35.5 -104.5t10 -119.5q0 -59 -13 -120.5t-43 -111t-76 -81t-113 -31.5q-104 0 -168 81t-64 257zM168 1096q0 -29 3 -71t16.5 -82t40 -68.5t71.5 -28.5q31 0 54.5 20.5t40 56t24.5 84t8 103.5 q0 76 -10 127t-26.5 81t-37 42t-43.5 12q-33 0 -58.5 -21.5t-44 -59.5t-28.5 -88t-10 -107zM315 0l506 1536h123l-506 -1536h-123zM733 338q0 72 17.5 133t49 105.5t78 70t105.5 25.5q68 0 112 -29t69.5 -75t35.5 -104t10 -120q0 -59 -13 -120.5t-42 -111t-76 -81 t-114 -31.5q-104 0 -168 81t-64 257zM850 330q0 -29 3 -71t16.5 -82t39 -68.5t70.5 -28.5q31 0 55.5 20.5t41 56.5t24.5 84t8 103q0 76 -10.5 127t-26.5 81t-36.5 42t-43.5 12q-33 0 -59.5 -21.5t-45 -59.5t-27.5 -88t-9 -107z" />
<glyph unicode="&#x26;" horiz-adv-x="1316" d="M74 426q0 162 76.5 269.5t199.5 158.5q-98 61 -141 141t-43 168q0 68 24.5 135.5t75.5 121t126 87t177 33.5q55 0 111.5 -12t101.5 -42t73 -80t28 -126q0 -78 -31 -123t-82 -45q-55 0 -108 55q29 12 56 50t27 98q0 39 -14 66.5t-37.5 46t-52.5 26.5t-59 8 q-55 0 -98.5 -24.5t-72 -64.5t-44 -91t-15.5 -106q0 -25 6.5 -70t29 -94t68.5 -92t126 -64q-135 -31 -208 -138.5t-73 -254.5t79 -242.5t245 -95.5q100 0 166.5 37t106.5 101.5t57.5 150.5t21.5 184l-78 8t-74 4q-135 0 -174 -92l-14 2q6 111 89 179.5t230 68.5q47 0 84 -5 t74 -5q59 0 110.5 20.5t67.5 67.5h13q2 -6 2 -13.5v-13.5q0 -37 -20.5 -74.5t-56.5 -68.5t-85 -52.5t-109 -25.5q-4 -147 -38.5 -265t-100.5 -200t-160 -126t-217 -44t-209 42t-138 107.5t-75.5 148.5t-23.5 165z" />
<glyph unicode="'" horiz-adv-x="352" d="M84 1149l43 387h174l-104 -387h-113z" />
<glyph unicode="(" horiz-adv-x="552" d="M78 512q0 158 26.5 316.5t80 297t133 247t184.5 163.5l24 -55q-78 -41 -138 -140.5t-100 -232.5t-60.5 -287.5t-20.5 -306.5q0 -92 12 -216t48 -256t102.5 -263t177.5 -242l-45 -49q-215 193 -319.5 458t-104.5 566z" />
<glyph unicode=")" horiz-adv-x="552" d="M6 1487l47 49q213 -193 317.5 -458t104.5 -566q0 -158 -26.5 -316.5t-80 -297t-133 -247t-184.5 -163.5l-22 55q78 41 137 140.5t99 232.5t60.5 287.5t20.5 306.5q0 92 -12 216t-48 256t-102.5 263t-177.5 242z" />
<glyph unicode="*" horiz-adv-x="811" d="M66 1014l243 141l-243 141l49 82l237 -137v299h107v-299l237 137l49 -82l-245 -141l245 -141l-49 -82l-237 137v-299h-107v299l-237 -137z" />
<glyph unicode="+" horiz-adv-x="880" d="M63 506v143h293v250h170v-250h291v-143h-291v-293h-170v293h-293z" />
<glyph unicode="," horiz-adv-x="442" d="M80 141q0 27 12 49.5t31.5 38t43 24.5t46.5 9q78 0 111.5 -47t33.5 -117q0 -49 -15 -103t-41 -104.5t-59.5 -90.5t-72.5 -58q-18 10 -23.5 23.5t-5.5 25.5q0 20 7.5 42t15.5 42.5t15 41t7 38.5q0 31 -8 44t-19.5 20.5t-25.5 10.5t-25.5 14t-19.5 32.5t-8 64.5z" />
<glyph unicode="-" horiz-adv-x="651" d="M121 473v143h409v-143h-409z" />
<glyph unicode="." horiz-adv-x="428" d="M78 125q0 55 39 96t96 41q55 0 96 -41t41 -96q0 -57 -41 -96t-96 -39q-57 0 -96 39t-39 96z" />
<glyph unicode="/" horiz-adv-x="1032" d="M31 -512l870 2048h103l-871 -2048h-102z" />
<glyph unicode="0" horiz-adv-x="1204" d="M94 737q0 178 34 325.5t100.5 253t166 163t228.5 57.5q137 0 229 -62.5t149.5 -165t82 -235.5t24.5 -274q0 -147 -26.5 -293t-87 -261.5t-159 -186t-241.5 -70.5q-109 0 -200 45t-157.5 137t-104.5 233.5t-38 333.5zM350 743q0 -109 13.5 -216t45 -193t83 -139.5 t126.5 -53.5q76 0 129.5 56.5t86 151.5t47 219t14.5 259q0 180 -22.5 298t-58.5 186.5t-81 95.5t-88 27q-72 0 -127 -58.5t-92 -155t-56.5 -220.5t-19.5 -257z" />
<glyph unicode="1" horiz-adv-x="630" d="M23 1266l6 106q39 0 86 5t102 22.5t118.5 48.5t137.5 84v-1532h-221v1266h-229z" />
<glyph unicode="2" horiz-adv-x="1034" d="M74 119q0 100 44 184t109.5 163t141 155.5t141 161.5t110 181.5t44.5 215.5q0 113 -47.5 183.5t-151.5 70.5q-96 0 -145.5 -55.5t-49.5 -127.5q0 -33 14.5 -79t55.5 -74q-25 -29 -52.5 -40t-51.5 -11q-37 0 -64 17t-44 47t-26.5 66.5t-9.5 73.5q0 133 103.5 208t287.5 75 q127 0 208 -35t128 -90t65.5 -123.5t18.5 -136.5q0 -125 -48 -223.5t-119.5 -180t-156.5 -150.5t-161 -133.5t-129 -131t-62 -142.5q31 9 74 9q88 0 189.5 -18.5t203.5 -18.5q55 0 94 8t67 25.5t48.5 44t42.5 63.5q14 -35 22.5 -71.5t8.5 -71.5q0 -51 -17.5 -85t-46 -54.5 t-68.5 -28.5t-85 -8q-59 0 -125 10t-127.5 22.5t-114.5 22.5t-90 10q-51 0 -101 -11t-102 -40q-6 10 -16 37.5t-10 85.5z" />
<glyph unicode="3" horiz-adv-x="1091" d="M61 381q0 117 49.5 180.5t137.5 63.5q18 0 39.5 -3.5t43 -14.5t40 -30.5t30.5 -50.5q-88 -4 -118.5 -54t-30.5 -116q0 -68 23.5 -111.5t58.5 -68t78 -35t82 -10.5q76 0 129 27.5t86.5 72.5t49 101.5t15.5 111.5q0 72 -24.5 141.5t-73.5 127t-125 95.5t-178 48 q88 20 154.5 59t111.5 87.5t66.5 101.5t21.5 106q0 43 -14.5 83t-43 71t-69.5 49.5t-94 18.5q-88 0 -133 -45.5t-45 -104.5q0 -43 25.5 -85t78.5 -79q-55 -63 -125 -63q-66 0 -113 54t-47 146q0 70 31 123.5t82 87t118.5 51t139.5 17.5q76 0 150.5 -19.5t133 -58.5 t94.5 -100.5t36 -143.5q0 -53 -16.5 -107t-46 -101.5t-71.5 -86t-93 -63.5q174 -70 250.5 -166t76.5 -229q0 -94 -42 -179t-114.5 -149.5t-169 -103.5t-206.5 -39q-53 0 -128 13t-143.5 54t-118 119t-49.5 207z" />
<glyph unicode="4" horiz-adv-x="974" d="M20 594q8 76 44 152.5t74 159.5t69 174t31 200q0 31 -3.5 67.5t-8.5 70.5t-12 64.5t-15 49.5q98 -2 152.5 -76t54.5 -194q0 -90 -28 -162t-66 -136.5t-76.5 -125t-61.5 -123.5h375v790l221 31v-821h170l-4 -121h-166v-594h-221v594h-529z" />
<glyph unicode="5" horiz-adv-x="1034" d="M66 346q0 117 47 173t116 56q45 0 86 -25.5t66 -78.5q-137 -12 -137 -139q0 -51 19.5 -90t51 -67t73.5 -42t87 -14q70 0 119 31.5t80 82t45 112t14 122.5q0 162 -88 248t-229 86q-92 0 -170 -30t-125 -64l143 792q96 -14 163 -23.5t142 -9.5q82 0 146.5 14.5t144.5 53.5 q12 -31 19.5 -57.5t7.5 -57.5q0 -70 -43 -113.5t-150 -43.5q-41 0 -85 6t-87 14t-83 16.5t-72 14.5l-84 -424q66 35 126 49t123 14q111 0 193 -39t135 -104.5t79 -150.5t26 -177q0 -96 -29 -185t-87 -157.5t-147.5 -109.5t-212.5 -41q-72 0 -146.5 17.5t-136 58t-101 109.5 t-39.5 173z" />
<glyph unicode="6" horiz-adv-x="1114" d="M88 662q0 172 36 329.5t107.5 279.5t179 193.5t253.5 71.5q70 0 126 -16.5t95 -44t59.5 -62.5t20.5 -72q0 -18 -6.5 -39.5t-18.5 -40t-32.5 -29.5t-49.5 -11q-14 0 -25.5 2t-25.5 6q20 27 20 71q0 55 -43 98.5t-112 43.5q-84 0 -151.5 -68.5t-115 -180.5t-74 -256 t-26.5 -294q0 -102 13.5 -193.5t45 -159t87 -107.5t139.5 -40q80 0 132 34t84 86t45 113.5t13 119.5q0 129 -59.5 214t-177.5 85q-59 0 -107.5 -26.5t-89.5 -92.5q-29 35 -29 74q0 33 17.5 64.5t50.5 57t80 41t106 15.5q86 0 158 -33t124 -90t82 -137t30 -174 q0 -92 -29 -183.5t-88.5 -163t-149.5 -115.5t-211 -44q-102 0 -191 36.5t-153.5 117.5t-101.5 209t-37 311z" />
<glyph unicode="7" horiz-adv-x="917" d="M29 1401q0 41 16 67.5t44 41t66 19.5t78 5q61 0 126 -8t130.5 -17.5t131 -17.5t129.5 -8q35 0 75.5 3t83.5 13q2 -4 2 -8v-8q0 -49 -33.5 -117t-85 -150.5t-110.5 -180t-110.5 -209t-85 -235.5t-33.5 -257q0 -127 25.5 -202t45.5 -118q-63 -33 -121 -32q-61 0 -101 32.5 t-63.5 81.5t-33.5 106.5t-10 106.5q0 106 35.5 210t89 201t116 186t116.5 167t90 140.5t36 109.5q-49 12 -124 25.5t-146 13.5q-31 0 -69 -4t-70.5 -17.5t-54 -38t-21.5 -63.5v-16.5t4 -18.5q-35 0 -65 16.5t-53.5 44t-36.5 62.5t-13 74z" />
<glyph unicode="8" horiz-adv-x="1083" d="M78 440q0 156 76.5 261.5t218.5 152.5q-113 63 -166 153.5t-53 186.5q0 66 24.5 127t73.5 109.5t120.5 77t166.5 28.5q88 0 159.5 -26.5t121.5 -71.5t77 -105.5t27 -130.5q0 -92 -50.5 -189.5t-158.5 -158.5q80 -27 135 -69t90 -95t51.5 -114.5t16.5 -124.5 q0 -94 -32 -178.5t-92.5 -148t-148 -100t-200.5 -36.5q-104 0 -189.5 33.5t-145 93t-91 143.5t-31.5 182zM289 436q0 -49 16.5 -102t48 -97t78 -73t105.5 -29q55 0 99 25.5t74.5 67.5t46 95.5t15.5 108.5q0 213 -246 340q-51 -18 -95 -52t-75.5 -79t-49 -98.5t-17.5 -106.5z M350 1217q0 -80 44.5 -160t142.5 -135q45 27 81.5 64.5t61.5 80.5t38 88t13 86q0 39 -12 76t-36 64.5t-57.5 44t-78.5 16.5q-92 0 -144.5 -66.5t-52.5 -158.5z" />
<glyph unicode="9" horiz-adv-x="1112" d="M63 1051q0 88 30 175t89.5 156.5t148.5 111.5t208 42q102 0 191 -37t154.5 -118t102.5 -209t37 -310q0 -172 -36 -329.5t-107.5 -279.5t-180 -193.5t-254.5 -71.5q-70 0 -125 25.5t-93 63.5t-58 82t-20 81q0 18 6 39.5t18 40t32.5 29.5t49.5 11q14 0 25.5 -2t25.5 -6 q-20 -27 -20 -71q0 -55 43 -98.5t112 -43.5q82 0 149.5 59.5t116 161t74 235.5t25.5 286q0 102 -13.5 198.5t-45 171t-87 119.5t-139.5 45q-76 0 -128 -37t-85 -92t-47 -119.5t-14 -117.5q0 -121 59.5 -200t177.5 -79q59 0 107.5 26.5t89.5 92.5q29 -35 29 -74 q0 -33 -17.5 -64.5t-50.5 -57t-80 -41t-106 -15.5q-86 0 -158 30.5t-124 86t-82 131.5t-30 166z" />
<glyph unicode=":" horiz-adv-x="514" d="M121 297q0 55 39 96t96 41q55 0 96 -41t41 -96q0 -57 -41 -96t-96 -39q-57 0 -96 39t-39 96zM121 791q0 55 39 96t96 41q55 0 96 -41t41 -96q0 -57 -41 -96.5t-96 -39.5q-57 0 -96 39.5t-39 96.5z" />
<glyph unicode=";" horiz-adv-x="505" d="M113 791q0 55 38.5 96t96.5 41q55 0 96 -41t41 -96q0 -57 -41 -96.5t-96 -39.5q-57 0 -96 39.5t-39 96.5zM115 311q0 27 12 49.5t31.5 38t43 24.5t46.5 9q78 0 111.5 -47t33.5 -117q0 -49 -15.5 -103t-41 -104.5t-59 -90.5t-72.5 -58q-18 10 -23.5 23.5t-5.5 25.5 q0 20 7 42t15.5 42.5t15.5 40.5t7 39q0 31 -8 44t-19.5 20.5t-25.5 10.5t-25.5 14t-19.5 32.5t-8 64.5z" />
<glyph unicode="&#x3c;" horiz-adv-x="735" d="M55 461v110l563 308v-113l-448 -246l448 -196v-117z" />
<glyph unicode="=" horiz-adv-x="954" d="M129 272v164h696v-164h-696zM129 647v164h696v-164h-696z" />
<glyph unicode="&#x3e;" horiz-adv-x="735" d="M117 207v117l448 196l-448 246v113l563 -308v-110z" />
<glyph unicode="?" horiz-adv-x="849" d="M47 1149q0 49 19.5 99t62.5 91t112.5 68t172.5 27q98 0 170.5 -25t122 -68t73 -100t23.5 -123q0 -74 -27.5 -131t-68.5 -105t-90.5 -92.5t-91.5 -90.5t-71.5 -100t-33.5 -124h-94q-6 31 -7 57q0 84 45.5 151t100.5 132.5t100 137t45 167.5q0 61 -19.5 104.5t-50 69 t-69.5 37.5t-78 12q-37 0 -70.5 -12t-59 -33.5t-42 -51t-16.5 -66.5q0 -45 41 -96.5t131 -65.5q-16 -43 -52 -64.5t-79 -21.5q-35 0 -71 13t-64.5 41t-46 69t-17.5 94zM238 125q0 55 38.5 96t96.5 41q55 0 96 -41t41 -96q0 -57 -41 -96t-96 -39q-57 0 -96 39t-39 96z" />
<glyph unicode="@" horiz-adv-x="1157" d="M70 336q0 168 55 314.5t150.5 255t222.5 172t270 63.5q47 0 103.5 -10.5t105.5 -44t82 -97t33 -170.5q0 -100 -28 -196.5t-76 -173t-113.5 -123.5t-139.5 -47q-37 0 -61.5 14t-38.5 37q-23 -35 -56.5 -59.5t-76.5 -24.5q-55 0 -92 44t-37 136q0 68 22.5 147.5t60.5 149.5 t88 116t105 46q29 0 49.5 -10.5t30.5 -24.5l8 31l113 -13l-92 -393q-4 -12 -9.5 -32.5t-5.5 -41.5q0 -16 7.5 -28.5t23.5 -12.5q39 0 79 44.5t70.5 110t50 142t19.5 144.5q0 47 -11 92t-37.5 81t-71 57.5t-111.5 21.5q-117 0 -214 -64.5t-167 -164t-109 -219.5t-39 -228 q0 -66 15.5 -123t51.5 -98t96.5 -64.5t150.5 -23.5q109 0 192.5 46t118.5 119q29 -12 38 -37.5t9 -50.5q0 -49 -29.5 -90t-84 -70.5t-132.5 -46t-172 -16.5q-72 0 -146.5 20.5t-135 68.5t-98 127t-37.5 198zM479 459q0 -14 3 -32.5t9.5 -35t18.5 -28t31 -11.5q29 0 46 14 t31 37q0 20 7 39l88 344q-8 12 -18.5 21.5t-24.5 9.5q-41 0 -76 -41t-60.5 -98t-40 -118.5t-14.5 -100.5z" />
<glyph unicode="A" horiz-adv-x="1234" d="M-88 719q0 49 29.5 88t82 67t123 42t154.5 14q23 0 47.5 -1t48.5 -3q51 123 114.5 234.5t137.5 194.5t156 132t172 49q31 0 77 -6t87 -23v-1507h-226v737q-78 37 -177 62.5t-201 38.5q-25 -90 -45.5 -185.5t-35 -188.5t-22.5 -182t-8 -169q0 -90 13.5 -176.5t58.5 -169.5 q-47 0 -98.5 10t-94.5 46t-70.5 102.5t-27.5 178.5q0 72 10 160t30.5 184.5t50.5 198t67 199.5q-59 -2 -111.5 -10.5t-90.5 -23.5t-60.5 -35.5t-22.5 -45.5q0 -8 2 -12q53 -16 53 -68q0 -37 -26.5 -51t-57.5 -14q-51 0 -95 29.5t-44 103.5zM557 905q102 -18 196.5 -46 t161.5 -60v639q-51 -4 -100 -46t-95 -114t-87 -167t-76 -206z" />
<glyph unicode="B" horiz-adv-x="1372" d="M35 1042q0 102 52 192.5t141 157t209 105.5t255 39q121 0 210 -29.5t147.5 -81t87 -117t28.5 -134.5q0 -78 -41 -155t-118 -130q158 -16 253 -125t95 -303q0 -66 -14.5 -151t-52.5 -161.5t-105.5 -130t-171.5 -53.5q-45 0 -86 11.5t-73 33t-50.5 55t-18.5 76.5q0 12 2 34 t7 36q29 -45 71.5 -62.5t79.5 -17.5q51 0 85 28.5t52.5 74t25.5 99.5t7 107q0 195 -74.5 281t-208.5 86q-25 0 -61.5 -2t-71.5 -6v-799h-221v1313l221 30v-462h29q57 0 107.5 27.5t87 72.5t57 99.5t20.5 107.5q0 121 -81.5 197.5t-243.5 76.5q-88 0 -172 -25.5t-148.5 -77.5 t-103.5 -132.5t-39 -186.5q0 -55 9 -96t21.5 -68.5t23.5 -44t18 -26.5q-115 0 -180.5 58.5t-65.5 178.5z" />
<glyph unicode="C" horiz-adv-x="1034" d="M96 717q0 141 24.5 286.5t86 263t165 193.5t261.5 76q78 0 147.5 -20.5t121.5 -60.5t83 -99.5t31 -138.5q0 -66 -24.5 -105t-84.5 -39q-29 0 -54.5 9.5t-41.5 27.5q18 14 33.5 59t15.5 103q0 98 -47 144t-125 46q-92 0 -158.5 -60.5t-109.5 -160.5t-62.5 -227t-19.5 -262 q0 -168 28.5 -287t84 -194.5t136.5 -111.5t185 -36q133 0 221 58.5t144 187.5l51 -21q-53 -186 -196.5 -283.5t-338.5 -97.5q-264 0 -410.5 186.5t-146.5 563.5z" />
<glyph unicode="D" horiz-adv-x="1443" d="M37 1055q0 94 49 182t136 153.5t205 105.5t257 40q197 0 332 -66.5t219 -176t121 -251t37 -290.5q0 -145 -30 -284.5t-82 -249t-124 -177.5t-158 -68q-61 0 -130.5 29t-151.5 90v-92h-221v1313l221 30v-1183q39 -29 74.5 -41.5t68.5 -12.5q80 0 134.5 58.5t89 152t50 208 t15.5 225.5q0 190 -26.5 325t-86 221t-154 126t-227.5 40q-92 0 -176 -28.5t-147.5 -83t-101 -133t-37.5 -179.5q0 -59 13 -100t30.5 -67.5t37 -42t31.5 -23.5q-125 0 -196.5 57.5t-71.5 192.5z" />
<glyph unicode="E" horiz-adv-x="915" d="M84 428q0 152 72.5 262.5t203.5 163.5q-98 61 -141 141t-43 168q0 68 24.5 135.5t76 121t126 87t177.5 33.5q55 0 111.5 -12t101.5 -42t72.5 -80t27.5 -126q0 -78 -31 -123t-82 -45q-55 0 -108 55q29 12 56.5 50t27.5 98q0 39 -14.5 66.5t-38 46t-52 26.5t-59.5 8 q-55 0 -98 -24.5t-72 -64.5t-44.5 -90t-15.5 -101q0 -23 5.5 -69t29 -96t69.5 -96.5t126 -64.5q-135 -31 -208 -138.5t-73 -254.5t79 -242.5t243 -95.5q74 0 136 19.5t110.5 53t83 77.5t53.5 94l51 -21q-29 -92 -84 -163.5t-129 -121t-160 -75t-174 -25.5q-117 0 -199.5 42 t-135 107.5t-77 148.5t-24.5 167z" />
<glyph unicode="F" horiz-adv-x="1134" d="M43 1073q0 98 33 182t102.5 146.5t177 98.5t256.5 36q51 0 97.5 -4t89.5 -8t88 -8.5t96 -4.5t96 5.5t86 19.5q-4 -72 -19.5 -114t-40 -63.5t-56 -28.5t-68.5 -7q-66 0 -134.5 11.5t-137.5 25.5v-469h303v-121h-303v-770h-222v1397q-10 2 -19 2h-19q-53 0 -100.5 -14.5 t-81.5 -49.5t-53 -93t-19 -146q0 -111 27.5 -185.5t64.5 -105.5q-244 0 -244 268z" />
<glyph unicode="G" horiz-adv-x="1214" d="M68 862q0 135 34.5 258t110.5 216.5t192.5 148.5t280.5 55q74 0 147.5 -13.5t134 -47t98.5 -91t38 -145.5q0 -27 -5 -56.5t-19.5 -55t-40 -42t-68.5 -16.5q-37 0 -62.5 13.5t-68.5 39.5q4 0 18 6.5t29.5 21.5t28 44t12.5 74q0 100 -61.5 145t-151.5 45q-100 0 -175 -50 t-125 -132t-75 -188.5t-25 -217.5q0 -106 22.5 -199t63.5 -162t101.5 -107.5t136.5 -38.5q135 0 211 128t92 363l199 -2v-770q0 -119 -24.5 -213t-75 -160.5t-129 -101.5t-189.5 -35q-102 0 -171 28.5t-110 74t-57 101.5t-16 109q0 45 11 89.5t38.5 80t74 58t113.5 22.5 q82 0 135.5 -35.5t53.5 -107.5q0 -10 -2 -25.5t-9 -31.5q-35 39 -70.5 48t-58.5 9q-72 0 -104.5 -39t-32.5 -98q0 -43 16.5 -81t44 -64.5t65.5 -42t79 -15.5q35 0 69.5 13.5t62.5 44t45.5 83.5t17.5 133v488q-53 -98 -141.5 -146.5t-201.5 -48.5t-206 46t-160.5 129 t-104 201t-36.5 263z" />
<glyph unicode="H" horiz-adv-x="1421" d="M37 1059q0 96 45 183t121 152.5t173 103.5t202 38q23 0 43 -1t41 -3v-641h442v577l223 64v-1532h-223v770h-442v-770h-224v1427q-113 -45 -177 -144t-64 -236q0 -72 9 -115t23.5 -69.5t30.5 -39t31 -18.5q-53 0 -99.5 13t-80 44t-54 79t-20.5 118z" />
<glyph unicode="I" horiz-adv-x="825" d="M37 1053q0 98 51 185t136 153.5t194.5 105.5t226.5 39q23 0 44.5 -1t41.5 -3v-1532h-225v1415q-137 -39 -217 -133t-80 -235q0 -55 8 -93.5t20.5 -66t30 -47t35.5 -35.5q-123 0 -194.5 56.5t-71.5 191.5z" />
<glyph unicode="J" horiz-adv-x="886" d="M2 -115q0 43 11.5 88t39 82t72.5 60.5t115 23.5q84 0 129 -38t45 -130q0 -6 -1 -13t-1 -15q-29 27 -59.5 39t-59.5 12q-53 0 -93 -40t-40 -116q0 -43 17.5 -75.5t46 -55t63.5 -35t71 -12.5q39 0 76 15.5t65.5 48t46 84t17.5 122.5v1487q-141 -35 -218 -133t-77 -246 q0 -53 9.5 -93t23.5 -67.5t30.5 -45t30.5 -27.5q-123 0 -194.5 57.5t-71.5 179.5q0 104 51.5 194.5t137.5 157t196.5 104.5t227.5 38h84v-1454q0 -117 -20.5 -210t-70 -159.5t-130 -101.5t-201.5 -35q-98 0 -169 23.5t-115 64.5t-64.5 98.5t-20.5 122.5z" />
<glyph unicode="K" horiz-adv-x="1327" d="M35 1053q0 98 51 185t136 153.5t194.5 105.5t226.5 39q23 0 44.5 -1t41.5 -3v-662l367 656h180l-459 -658q29 2 50.5 3t37.5 1q104 0 168 -26.5t99.5 -72.5t47 -108.5t11.5 -134.5q0 -37 -2 -79.5t-3 -84.5t-3 -81t-2 -70q0 -92 33.5 -145.5t82.5 -69.5 q-61 -18 -100 -26.5t-76 -8.5q-92 0 -136 59.5t-44 151.5q0 39 3 88t8 99.5t8.5 98.5t3.5 87q0 70 -15.5 118t-41 75.5t-61.5 40t-77 12.5q-35 0 -80 -11v-784h-225v1417q-141 -41 -224 -136t-83 -239q0 -66 15 -127t71 -110q-49 0 -94.5 13t-79 43t-54 77t-20.5 115z" />
<glyph unicode="L" horiz-adv-x="927" d="M37 1032q0 98 51 185.5t136 154t194.5 105.5t226.5 39q23 0 44.5 -1.5t41.5 -3.5l-2 -6v-1464q66 -14 128.5 -45t128 -61.5t138 -53t158.5 -22.5q72 0 158 41q6 -29 6 -56q0 -43 -15.5 -80.5t-45 -66.5t-71.5 -46.5t-93 -17.5q-80 0 -158 50.5t-158 111t-167 110.5 t-185 50h-23.5t-23.5 -2v1442q-137 -39 -217 -133.5t-80 -235.5q0 -55 8 -93t20.5 -65.5t30 -47t35.5 -36.5q-123 0 -194.5 56.5t-71.5 191.5z" />
<glyph unicode="M" horiz-adv-x="1540" d="M43 1038q0 100 49 191.5t125 159t167 107.5t177 40q33 0 64.5 -6t60.5 -23l205 -1190l239 1190h234l115 -1507h-234l-82 1073l-217 -1073h-219l-182 1053l-166 -1053h-123l225 1434q-129 -29 -198.5 -124.5t-69.5 -267.5q0 -70 9 -113.5t21.5 -70.5t26 -38t19.5 -15 q-111 0 -178.5 56.5t-67.5 176.5z" />
<glyph unicode="N" horiz-adv-x="1452" d="M41 1069q0 84 34 167t95 149.5t147 108.5t191 42q35 0 71.5 -6t71.5 -23l570 -1314v1339h137v-1532h-275l-514 1153v-1153h-137v1411q-113 -39 -176 -124t-63 -222q0 -63 10 -107.5t24.5 -74t31.5 -48t32 -30.5q-129 0 -189.5 62.5t-60.5 201.5z" />
<glyph unicode="O" horiz-adv-x="1437" d="M37 1032q0 104 54 196.5t148.5 160t221.5 107.5t272 40q188 0 313 -65.5t201 -173t106.5 -246t30.5 -285.5q0 -135 -25.5 -273.5t-89 -251t-168 -183t-261.5 -70.5q-102 0 -192.5 34.5t-158 114.5t-107.5 209t-40 318q0 117 18.5 239.5t59.5 224t109.5 167t170.5 65.5 q23 0 49.5 -3.5t55.5 -13.5q-51 -31 -91 -107.5t-66.5 -177t-40 -214t-13.5 -217.5q0 -68 8 -152t34 -157.5t73 -124t125 -50.5q84 0 141 58.5t93 154t52.5 216t16.5 245.5q0 199 -36 325t-95.5 197.5t-138.5 97t-167 25.5q-102 0 -191 -28.5t-155.5 -86t-104.5 -143.5 t-38 -200q0 -59 8 -96.5t18.5 -59t21.5 -31.5t15 -12q-111 0 -174 56.5t-63 170.5z" />
<glyph unicode="P" horiz-adv-x="1230" d="M37 1053q0 98 51 185t137 153.5t199 105.5t238 39q135 0 241.5 -34t178 -94t109.5 -140t38 -172q0 -86 -31 -177.5t-92.5 -165t-152.5 -121.5t-212 -48h-45v-584h-221v1313l221 30v-696q90 0 154.5 38t105.5 97.5t60.5 134t19.5 148.5q0 66 -13 135.5t-56 127.5t-123 96 t-213 38q-90 0 -170 -27.5t-138.5 -79.5t-92 -129t-33.5 -177q0 -63 10 -106.5t24.5 -72t28.5 -44t23 -21.5q-115 0 -180.5 57.5t-65.5 190.5z" />
<glyph unicode="Q" horiz-adv-x="1488" d="M35 1030q0 104 57.5 196.5t154.5 161t227 108.5t276 40q188 0 311 -65.5t194.5 -172t99 -242.5t27.5 -280q0 -96 -11 -191.5t-37.5 -184.5t-69.5 -165.5t-107 -132.5q31 -31 63.5 -60.5t69.5 -52t79 -35.5t93 -13q16 0 27.5 1t21.5 3q-16 -72 -54 -101.5t-103 -29.5 q-57 0 -102.5 18t-81 49t-65.5 70t-56 80q-45 -20 -98.5 -31.5t-114.5 -11.5q-102 0 -192.5 34.5t-158 114.5t-106.5 209t-39 318q0 117 18.5 239.5t59.5 224t109.5 167t170.5 65.5q23 0 49.5 -3.5t55.5 -13.5q-51 -31 -91 -107.5t-67 -177t-40 -216t-13 -221.5q0 -37 2 -80 t8 -89t16.5 -90.5t28.5 -82.5q49 16 94 22t74 6q59 0 105.5 -18.5t87.5 -46.5q68 96 97.5 252.5t29.5 332.5q0 197 -33 320t-89.5 193.5t-132 96t-161.5 25.5q-102 0 -194.5 -28.5t-163 -87t-111.5 -144.5t-41 -203q0 -55 8 -92t19.5 -58.5t21.5 -31.5t14 -12 q-111 0 -174 57.5t-63 167.5zM684 217q27 -35 62.5 -54.5t84.5 -19.5q59 0 111 35q-29 31 -64.5 49.5t-80.5 18.5q-23 0 -53.5 -6.5t-59.5 -22.5z" />
<glyph unicode="R" horiz-adv-x="1335" d="M35 1053q0 96 49 183t135 153.5t201 106.5t244 40q123 0 220 -24.5t164.5 -69.5t103.5 -107.5t36 -136.5q0 -43 -12.5 -88t-36 -90t-58 -84t-82.5 -70q76 -12 122 -42.5t71 -74.5t32 -100.5t7 -118.5q0 -37 -2 -79.5t-3 -84.5t-3 -81t-2 -70q0 -92 33.5 -145.5 t82.5 -69.5q-61 -18 -100 -26.5t-76 -8.5q-92 0 -136 59.5t-44 151.5q0 39 3 88t8 99.5t8.5 98.5t3.5 87q0 70 -15.5 118t-41 75.5t-61.5 40t-77 12.5q-23 0 -56.5 -4.5t-58.5 -10.5v-780h-221v1313l221 30v-477h54q61 0 109 28t82 72t51.5 100t17.5 112q0 49 -15.5 99 t-54.5 92t-108.5 67.5t-176.5 25.5q-96 0 -177 -28.5t-140.5 -83t-93 -132t-33.5 -176.5q0 -72 8 -115.5t19.5 -68t22.5 -36t17 -17.5q-43 0 -86 13t-77.5 42t-56 77t-21.5 116z" />
<glyph unicode="S" horiz-adv-x="1009" d="M70 305q0 51 14 104.5t42 96.5t70 70.5t97 27.5q45 0 76.5 -24.5t56.5 -92.5q-49 -2 -81 -20t-50.5 -45t-25.5 -57.5t-7 -57.5q0 -55 24.5 -96t62.5 -68.5t82 -41t85 -13.5q94 0 155.5 71.5t61.5 207.5q0 115 -44 181t-111.5 111.5t-144.5 78t-144.5 77.5t-111.5 115.5 t-44 189.5q0 102 35 180t91 130.5t131 78t155 25.5q35 0 95 -8t118.5 -37t100.5 -85.5t42 -150.5q0 -82 -33.5 -127t-89.5 -45q-29 0 -48 10.5t-40 32.5q29 20 44.5 59.5t15.5 82.5q0 35 -11.5 69.5t-36 62t-61.5 45t-88 17.5q-53 0 -95 -19.5t-70 -53t-42 -78.5t-14 -97 q0 -98 48 -157.5t119.5 -100.5t156.5 -77.5t157 -91t120 -137.5t48 -220q0 -123 -41 -210t-107.5 -140t-152.5 -78t-176 -25q-80 0 -158 18.5t-139.5 58.5t-99 102.5t-37.5 150.5z" />
<glyph unicode="T" horiz-adv-x="1374" d="M41 1100q0 84 32.5 161.5t105.5 138t188.5 97.5t283.5 37q82 0 148.5 -7t125 -16.5t116 -16.5t120.5 -7q86 0 144.5 13t97.5 30q6 -37 6 -70q0 -170 -217 -170q-74 0 -159 14.5t-177 34.5v-1339h-221v1372q-23 4 -42.5 4h-39.5q-172 0 -263 -62.5t-91 -226.5 q0 -123 27.5 -187t56.5 -97q-51 0 -95.5 15.5t-77 50t-51 91t-18.5 140.5z" />
<glyph unicode="U" horiz-adv-x="1576" d="M33 1051q0 98 51 186t138 154.5t201 105.5t239 39q23 0 43 -2t53 -8v-1102q0 -92 21.5 -148.5t56 -85t80 -38t92.5 -9.5t92 9.5t81 39t57.5 86t21.5 150.5v1104h225v-1110q0 -57 -17.5 -133t-71 -143.5t-150.5 -113.5t-255 -46t-253 46t-146 112.5t-68.5 141t-17.5 134.5 v1028q-154 -35 -238 -140.5t-84 -271.5q0 -59 10.5 -99t22.5 -66.5t24.5 -41t16.5 -22.5q-41 0 -82 15.5t-72.5 45t-51 75.5t-19.5 108z" />
<glyph unicode="V" horiz-adv-x="1318" d="M39 1077q0 92 35 176t102.5 146.5t165.5 99.5t225 37q23 0 44.5 -2t43.5 -6l273 -1364l284 1362h117l-344 -1526h-227l-305 1419q-82 0 -136.5 -27.5t-86 -73.5t-45 -104.5t-13.5 -119.5q0 -88 24.5 -158t71.5 -129q-41 0 -82 12t-73.5 43t-53 83t-20.5 132z" />
<glyph unicode="W" horiz-adv-x="2039" d="M39 1077q0 92 35 176t102.5 146.5t165.5 99.5t225 37q23 0 44.5 -2t43.5 -6l293 -1364l264 1362h152l293 -1362l264 1362h117l-324 -1526h-227l-246 1110l-235 -1110h-228l-325 1419q-78 0 -131.5 -27.5t-86 -73.5t-48 -104.5t-15.5 -119.5q0 -88 24.5 -158t71.5 -129 q-41 0 -82 12t-73.5 43t-53 83t-20.5 132z" />
<glyph unicode="X" horiz-adv-x="1259" d="M41 1077q0 102 42 187.5t111.5 145.5t162 94t192.5 34q43 0 84 -6l264 -617l242 611h96l-287 -731l342 -795h-221l-268 616l-250 -616h-96l293 737l-314 725q-57 -16 -103 -54t-79 -92t-50.5 -118.5t-17.5 -134.5q0 -94 23.5 -151.5t52.5 -86.5q-51 0 -92 10.5t-68.5 39 t-43 76.5t-15.5 126z" />
<glyph unicode="Y" horiz-adv-x="1245" d="M41 1073q0 94 34 178t97.5 147.5t154.5 100.5t203 37q23 0 43.5 -1t40.5 -3l297 -787l265 781h106l-328 -895v-631h-221v631l-321 831q-72 -18 -118 -58t-75 -91t-40 -110.5t-11 -117.5q0 -162 102 -280q-109 0 -169 61.5t-60 206.5z" />
<glyph unicode="Z" horiz-adv-x="1001" d="M37 0l674 1444q-12 0 -48 2t-81 4t-90.5 3t-73.5 1q-33 0 -63.5 -2t-55.5 -6t-39 -12.5t-16 -20.5q49 -33 49 -84q0 -33 -23.5 -59.5t-64.5 -26.5q-25 0 -49.5 10.5t-45 28.5t-34 45t-13.5 59q0 57 60.5 103.5t165.5 46.5h696l-672 -1427q47 0 120 -3.5t149 -3.5 q43 0 83 2t72.5 6.5t53 13.5t26.5 21q-25 16 -38 40t-13 46q0 39 27.5 60.5t68.5 21.5q20 0 44 -8t44.5 -23.5t32.5 -38t12 -53.5q0 -35 -15 -68.5t-44 -61t-69 -44t-91 -16.5h-739z" />
<glyph unicode="[" horiz-adv-x="583" d="M145 -512v2048h396v-127h-246v-1794h248v-127h-398z" />
<glyph unicode="\" horiz-adv-x="1032" d="M29 1536h102l870 -2048h-102z" />
<glyph unicode="]" horiz-adv-x="583" d="M41 -385h248v1794h-246v127h395v-2048h-397v127z" />
<glyph unicode="^" horiz-adv-x="862" d="M-131 1149l340 342h43l197 -342h-46l-176 207l-288 -207h-70z" />
<glyph unicode="_" horiz-adv-x="897" d="M90 0v143h717v-143h-717z" />
<glyph unicode="`" horiz-adv-x="411" d="M-262 1536h174l145 -387h-112z" />
<glyph unicode="a" d="M66 457q0 94 21.5 196.5t68.5 186.5t120.5 139t178.5 55q25 0 52.5 -5t53 -17.5t48 -34t36.5 -51.5v98h205v-696q0 -20 2 -51t11 -61t27.5 -51.5t51.5 -21.5q100 0 148 224h75q-23 -129 -57.5 -204t-73.5 -114t-80 -50t-73 -11q-47 0 -81 16t-57.5 43t-38 61.5 t-22.5 73.5q-31 -80 -99.5 -137t-166.5 -57q-61 0 -124 24.5t-113 81t-81.5 145.5t-31.5 218zM281 471q0 -176 48 -252t138 -76q31 0 62.5 17.5t57 47.5t42 70.5t16.5 88.5v467q-14 33 -44 60.5t-77 27.5q-66 0 -112.5 -44t-75.5 -111t-42 -145.5t-13 -150.5z" />
<glyph unicode="b" horiz-adv-x="856" d="M94 367l2 1038l205 29v-486q35 35 82 57.5t113 22.5q55 0 114.5 -19.5t110.5 -68.5t84 -135t33 -219q0 -117 -28 -225.5t-84 -191.5t-140 -132t-197 -49q-63 0 -117.5 19.5t-93.5 63.5t-61.5 116.5t-22.5 179.5zM301 313q0 -184 121 -184q57 0 101 34t74 91t44 131 t14 154t-14 149.5t-42 121.5t-67.5 82t-91.5 30q-41 0 -75.5 -19.5t-63.5 -50.5v-539z" />
<glyph unicode="c" horiz-adv-x="745" d="M72 465q0 86 15 185.5t57 184.5t116 142t191 57q129 0 196.5 -62.5t67.5 -183.5q0 -51 -19.5 -85.5t-60.5 -34.5q-45 0 -76 43q16 14 25.5 45.5t9.5 60.5q0 47 -29.5 78t-83.5 31q-55 0 -92 -41t-59.5 -103.5t-31.5 -139.5t-9 -150q0 -109 19.5 -176.5t52 -105.5 t76.5 -52.5t93 -14.5q109 0 183.5 54.5t128.5 169.5h69q-25 -76 -69.5 -144.5t-104 -121t-129 -83t-145.5 -30.5q-72 0 -141.5 24.5t-125 81t-90 147.5t-34.5 224z" />
<glyph unicode="d" d="M66 457q0 94 21.5 196.5t68.5 186.5t120.5 139t178.5 55q25 0 52.5 -5t53 -17.5t48 -34t36.5 -51.5v479l205 29v-1106q0 -20 2 -51t11 -61t27.5 -51.5t51.5 -21.5q100 0 148 224h75q-23 -129 -57.5 -204t-73.5 -114t-80 -50t-73 -11q-47 0 -81 16t-57.5 43t-38 61.5 t-22.5 73.5q-31 -80 -99.5 -137t-166.5 -57q-61 0 -124 24.5t-113 81t-81.5 145.5t-31.5 218zM281 471q0 -176 48 -252t138 -76q31 0 62.5 17.5t57 47.5t42 70.5t16.5 88.5v467q-14 33 -44 60.5t-77 27.5q-66 0 -112.5 -44t-75.5 -111t-42 -145.5t-13 -150.5z" />
<glyph unicode="e" horiz-adv-x="753" d="M72 461q0 86 19.5 186.5t65.5 186.5t120.5 143t185.5 57q51 0 99 -11t87 -41t62.5 -81t23.5 -133q0 -143 -117.5 -239.5t-326.5 -118.5q8 -82 29.5 -133.5t52 -81t70.5 -41t83 -11.5q98 0 184.5 51.5t139.5 172.5h65q-27 -76 -73.5 -144.5t-110 -121t-137.5 -83 t-152 -30.5q-72 0 -138 24.5t-117.5 81t-83 146.5t-31.5 221zM289 489q145 23 230 103t85 196q0 78 -26.5 112t-75.5 34q-53 0 -93 -41t-67 -105.5t-40 -143.5t-13 -155z" />
<glyph unicode="f" horiz-adv-x="489" d="M-172 -313q0 51 23.5 94t61.5 79t85 63.5t96 47.5v1209q0 178 84 267t215 89q61 0 112.5 -18.5t90.5 -57.5t60.5 -96t21.5 -135h-80q-12 82 -44 129t-105 47q-49 0 -78 -21.5t-45.5 -58.5t-21.5 -89t-5 -114v-98h166v-72h-166v-1116q0 -109 -21.5 -176.5t-56.5 -106 t-81 -52t-97 -13.5q-111 0 -163 51t-52 148zM-92 -307q0 -41 26.5 -70t67.5 -29q59 0 75.5 63.5t16.5 174.5v64q-92 -45 -139 -98.5t-47 -104.5z" />
<glyph unicode="g" d="M66 477q0 92 21.5 190.5t68.5 179.5t120.5 134t178.5 53q25 0 52.5 -5t53 -17.5t48 -34t36.5 -51.5v98h205v-981q51 16 91 36.5t69.5 55.5t49 90.5t30.5 141.5h75q-16 -109 -41.5 -177.5t-63.5 -110.5t-90 -65.5t-120 -44.5v-131q0 -96 -20.5 -162.5t-56.5 -108.5 t-82 -60.5t-97 -18.5q-102 0 -159.5 58.5t-57.5 142.5q0 53 23.5 96t61.5 79t86 63.5t97 47.5v177q-39 -53 -97.5 -88t-131.5 -35q-61 0 -124 23.5t-113 76.5t-81.5 139t-31.5 209zM281 492q0 -166 48 -237t138 -71q31 0 62.5 16.5t57 45t42 67.5t16.5 84v437 q-14 33 -44 60.5t-77 27.5q-66 0 -112.5 -42t-75.5 -105.5t-42 -139.5t-13 -143zM457 -303q0 -47 25.5 -75t72.5 -28q55 0 72.5 42t17.5 114v144q-102 -47 -145 -93.5t-43 -103.5z" />
<glyph unicode="h" horiz-adv-x="956" d="M94 0v1405l205 29v-566q31 55 62.5 89t64.5 50.5t62.5 21.5t56.5 5q92 0 148.5 -34.5t85 -89t37.5 -119t9 -123.5q0 -37 -2 -81t-4 -90t-4 -92.5t-2 -85.5q0 -16 2 -45.5t10.5 -58.5t26.5 -50.5t53 -21.5q47 0 85 53.5t63 170.5h75q-23 -129 -57.5 -204t-73.5 -114 t-77.5 -50t-71.5 -11q-66 0 -111 25.5t-73.5 68.5t-42 100.5t-13.5 118.5q0 18 1 68.5t2 108t2 108.5t1 71q0 66 -10 109t-28.5 67.5t-42 35t-50.5 10.5q-63 0 -109 -51.5t-75 -172.5v-655h-205z" />
<glyph unicode="i" horiz-adv-x="444" d="M59 1319q0 55 39 96t97 41q55 0 96 -41t41 -96q0 -57 -41 -96t-96 -39q-57 0 -96.5 39t-39.5 96zM96 285v739h205v-696q0 -20 2 -51t11.5 -61t27.5 -51.5t51 -21.5q100 0 148 224h75q-23 -129 -57.5 -204t-73.5 -114t-79.5 -50t-73.5 -11q-72 0 -117 27.5t-71.5 70.5 t-37 96.5t-10.5 102.5z" />
<glyph unicode="j" horiz-adv-x="444" d="M-172 -311q0 53 23.5 96t61.5 79t86 63.5t97 47.5v1049h205v-981q51 16 91 36.5t70 55.5t49 90.5t30 141.5h75q-16 -109 -41.5 -177.5t-63.5 -110.5t-90 -65.5t-120 -44.5v-131q0 -96 -20.5 -162.5t-56.5 -108.5t-82 -60.5t-97 -18.5q-102 0 -159.5 58.5t-57.5 142.5z M-92 -303q0 -47 25.5 -75t72.5 -28q55 0 72.5 42t17.5 114v144q-102 -47 -145 -93.5t-43 -103.5zM59 1319q0 55 39 96t97 41q55 0 96 -41t41 -96q0 -57 -41 -96t-96 -39q-57 0 -96.5 39t-39.5 96z" />
<glyph unicode="k" horiz-adv-x="935" d="M94 0v1405l205 29v-744l352 334h199l-342 -276h20q92 0 146.5 -31t84 -79t39 -104.5t9.5 -105.5q0 -20 -1 -46t-2 -51.5t-2 -47t-1 -33.5q0 -14 2 -32.5t10 -35t24.5 -28t43.5 -11.5q53 0 91 53.5t62 170.5h76q-25 -133 -59.5 -208t-74.5 -114t-80 -48t-71 -9 q-61 0 -105 18.5t-71.5 50t-41 74.5t-13.5 90v36t1 58.5t1 58v38.5q0 106 -39 143t-90 37q-53 0 -95 -35t-73 -123v-434h-205z" />
<glyph unicode="l" horiz-adv-x="442" d="M96 285v1120l205 29v-1106q0 -20 2 -51t11.5 -61t27.5 -51.5t51 -21.5q100 0 148 224h75q-23 -129 -57.5 -204t-73.5 -114t-79.5 -50t-73.5 -11q-72 0 -117 27.5t-71.5 70.5t-37 96.5t-10.5 102.5z" />
<glyph unicode="m" horiz-adv-x="1419" d="M94 0v1024h205v-141q53 98 112.5 124.5t112.5 26.5t93 -14t69 -39t48.5 -57.5t31.5 -71.5q29 61 59.5 97t61.5 55.5t60.5 24.5t53.5 5q92 0 148.5 -34.5t85.5 -89t38 -119t9 -123.5q0 -37 -2 -81t-4 -90t-4 -92.5t-2 -85.5q0 -16 2 -45.5t10 -58.5t26.5 -50.5t53.5 -21.5 q47 0 85 53.5t62 170.5h76q-23 -129 -57.5 -204t-73.5 -114t-78 -50t-71 -11q-66 0 -111 25.5t-73.5 68.5t-42 100.5t-13.5 118.5q0 18 1 68.5t2 108t2 108.5t1 71q0 66 -10 109t-28.5 67.5t-42 35t-50.5 10.5q-63 0 -103 -51.5t-57 -172.5v-655h-205v684q0 37 -3 72 t-15 62.5t-34.5 44t-61.5 16.5q-66 0 -99.5 -54.5t-62.5 -169.5v-655h-205z" />
<glyph unicode="n" horiz-adv-x="956" d="M94 0v1024h205v-156q31 55 62.5 89t64.5 50.5t62.5 21.5t56.5 5q92 0 148.5 -34.5t85 -89t37.5 -119t9 -123.5q0 -37 -2 -81t-4 -90t-4 -92.5t-2 -85.5q0 -16 2 -45.5t10.5 -58.5t26.5 -50.5t53 -21.5q47 0 85 53.5t63 170.5h75q-23 -129 -57.5 -204t-73.5 -114 t-77.5 -50t-71.5 -11q-66 0 -111 25.5t-73.5 68.5t-42 100.5t-13.5 118.5q0 18 1 68.5t2 108t2 108.5t1 71q0 66 -10 109t-28.5 67.5t-42 35t-50.5 10.5q-63 0 -109 -51.5t-75 -172.5v-655h-205z" />
<glyph unicode="o" horiz-adv-x="858" d="M70 465q0 90 19.5 190.5t65.5 184.5t122.5 139t191.5 55q80 0 137.5 -24.5t94 -68.5t58 -103.5t32.5 -126.5h12q86 0 157.5 34.5t122.5 88.5l31 -56q-41 -66 -130 -108.5t-183 -59.5q0 -20 1 -40.5t1 -43.5q0 -252 -92.5 -395t-257.5 -143q-68 0 -136.5 24.5t-124 82 t-89 147.5t-33.5 223zM291 473q0 -100 18.5 -163.5t47 -100.5t63 -51.5t69.5 -14.5q109 0 160 107.5t51 304.5v24.5t-2 24.5q-59 4 -84.5 26.5t-25.5 76.5q0 47 20.5 66.5t61.5 21.5q-25 72 -63 99.5t-85 27.5q-63 0 -107 -42t-72 -107.5t-40 -144.5t-12 -155z" />
<glyph unicode="p" horiz-adv-x="866" d="M94 -512v1612h207v-158q39 41 91 66.5t122 25.5q72 0 133.5 -30.5t107.5 -93t72.5 -158t26.5 -226.5q0 -256 -96 -397t-256 -141q-68 0 -116 25.5t-85 72.5v-547zM301 188q29 -37 64.5 -53t70.5 -16q51 0 90 32.5t67 89t42 132.5t14 162q0 106 -19.5 176.5t-50 112.5 t-67.5 59.5t-70 17.5q-45 0 -80.5 -25.5t-60.5 -72.5v-615z" />
<glyph unicode="q" horiz-adv-x="911" d="M66 457q0 94 21.5 196.5t68.5 186.5t120.5 139t178.5 55q49 0 104 -21.5t84 -82.5v94h207v-1485l-207 -51v621q-39 -53 -97.5 -87t-129.5 -34q-61 0 -124 24.5t-113 81t-81.5 145.5t-31.5 218zM281 471q0 -176 48 -252t138 -76q29 0 58.5 14.5t54 41t42 62.5t21.5 77v502 q-14 31 -44 56.5t-75 25.5q-66 0 -112.5 -44t-75.5 -111t-42 -145.5t-13 -150.5z" />
<glyph unicode="r" horiz-adv-x="688" d="M94 0v1024h205v-172q25 37 48.5 69.5t52 57.5t63.5 40t78 15q70 0 102.5 -35.5t32.5 -87.5q0 -31 -10.5 -51t-24.5 -32.5t-30.5 -17.5t-28.5 -5q-18 0 -29.5 8t-23 17.5t-26 17.5t-36.5 8q-47 0 -90 -32.5t-78 -69.5v-754h-205z" />
<glyph unicode="s" horiz-adv-x="700" d="M49 291q0 53 21.5 93t52.5 56q53 154 104.5 304.5t67.5 302.5l207 40q49 -195 80.5 -317.5t51 -207.5t29 -149.5t9.5 -142.5q35 23 65.5 48.5t59.5 48.5h86q-59 -82 -122 -136.5t-122 -95.5q-23 -41 -57.5 -68.5t-74.5 -45t-80 -25.5t-73 -8q-90 0 -148.5 28.5t-93 72.5 t-49 98.5t-14.5 103.5zM145 293q16 -72 57.5 -112t108.5 -40q66 0 105 34t39 110q0 63 -7.5 112t-21.5 108.5t-35.5 144.5t-50.5 218q-12 -115 -50 -219t-69 -215q18 -12 31.5 -33.5t13.5 -56.5q0 -39 -20.5 -59.5t-44.5 -20.5q-33 0 -56 29z" />
<glyph unicode="t" horiz-adv-x="483" d="M27 952v72h69v283l205 28v-311h158v-72h-158v-624q0 -25 2 -56.5t11.5 -60.5t28.5 -48.5t54 -19.5q55 0 105.5 55.5t79.5 168.5h75q-35 -129 -74.5 -204t-82.5 -114t-85 -50t-77 -11q-74 0 -121 27.5t-73.5 70.5t-37 95t-10.5 104v667h-69z" />
<glyph unicode="u" horiz-adv-x="929" d="M94 305v719h205v-696q0 -100 35 -142.5t88 -42.5q29 0 57.5 15.5t51 44t37 69.5t14.5 95v657h204v-696q0 -20 2.5 -51t11.5 -61t27.5 -51.5t51.5 -21.5q100 0 147 224h76q-23 -129 -57.5 -204t-73.5 -114t-80 -50t-74 -11q-47 0 -81 16t-57.5 43t-37.5 61.5t-23 71.5 q-39 -100 -102 -146t-133 -46q-59 0 -112.5 16t-92.5 54t-61.5 98.5t-22.5 148.5z" />
<glyph unicode="v" horiz-adv-x="817" d="M94 268v756h205v-696q0 -35 4 -68t17.5 -58.5t37 -42t60.5 -16.5q63 0 106 46.5t71 120t40 164.5t12 181q0 57 -4 113.5t-14 101.5q-10 -10 -26.5 -13t-27.5 -3q-49 0 -73.5 35t-24.5 74q0 41 26.5 72.5t78.5 31.5q35 0 66.5 -20.5t54.5 -64.5t37 -116t14 -176 q0 -117 -19.5 -240.5t-64.5 -226t-117 -169t-178 -66.5q-53 0 -103.5 18.5t-90.5 53t-63.5 88t-23.5 120.5z" />
<glyph unicode="w" horiz-adv-x="1275" d="M94 305v719h205v-696q0 -100 35 -142.5t88 -42.5q29 0 57.5 15.5t51 44t37 69.5t14.5 95v657h204v-696q0 -35 4.5 -68t17.5 -58.5t36.5 -42t60.5 -16.5q63 0 106.5 46.5t71 120t40 164.5t12.5 181q0 57 -4.5 113.5t-14.5 101.5q-10 -10 -26.5 -13t-26.5 -3 q-49 0 -73.5 35t-24.5 74q0 41 26.5 72.5t77.5 31.5q35 0 66.5 -20.5t55 -64.5t37 -115.5t13.5 -176.5q0 -117 -19.5 -240.5t-64.5 -226t-116.5 -169t-178.5 -66.5q-80 0 -151.5 41t-106.5 118q-41 -84 -99.5 -121.5t-121.5 -37.5q-59 0 -112.5 16t-92.5 54t-61.5 98.5 t-22.5 148.5z" />
<glyph unicode="x" horiz-adv-x="1019" d="M92 362q12 61 23.5 135t26 149t35 144.5t52 124t74.5 87t105 32.5q90 0 141 -68.5t90 -174.5l82 -228q29 39 56.5 82t50 88t36 88t13.5 84v18.5t-3 16.5q-18 -8 -43 -8q-45 0 -78.5 29.5t-33.5 78.5q0 45 30.5 76t77.5 31q59 0 100.5 -52.5t41.5 -150.5 q0 -109 -56.5 -219.5t-158.5 -251.5l41 -108q37 -100 73.5 -161t89.5 -61q31 0 58.5 19.5t49 50.5t35 70t17.5 77h62q-10 -121 -46 -193.5t-82 -112.5t-93.5 -53t-79.5 -13q-92 0 -159 83t-134 267l-215 -338h-140l318 442l-90 254q-37 104 -61.5 144.5t-53.5 40.5 q-115 0 -176 -519h-76z" />
<glyph unicode="y" horiz-adv-x="929" d="M94 305v719h205v-696q0 -100 35 -142.5t88 -42.5q29 0 57.5 14.5t51 42t37 66.5t14.5 90v668h204v-981q51 16 91.5 36.5t70 55.5t49 90.5t29.5 141.5h76q-16 -109 -42 -177.5t-64 -110.5t-90 -65.5t-120 -44.5v-131q0 -96 -20.5 -162.5t-56 -108.5t-81.5 -60.5t-98 -18.5 q-102 0 -159.5 58.5t-57.5 142.5q0 53 23.5 96t61.5 79t86 63.5t98 47.5v129q-41 -59 -93.5 -87.5t-105.5 -28.5q-59 0 -112.5 16t-92.5 54t-61.5 98.5t-22.5 148.5zM393 -303q0 -47 26 -75t73 -28q55 0 72.5 42t17.5 114v144q-102 -47 -145.5 -93.5t-43.5 -103.5z" />
<glyph unicode="z" horiz-adv-x="847" d="M125 903q0 53 46 87t165 34h508l-438 -881q12 0 47.5 -2t76.5 -4t80 -4t60 -2q37 0 58.5 12.5t25.5 30.5q-16 4 -26.5 20.5t-10.5 32.5q0 33 25.5 50.5t58.5 17.5q45 0 82 -31t37 -90q0 -31 -16.5 -61.5t-47.5 -55t-74 -41t-96 -16.5h-536l442 913h-176q-45 0 -81 -5 t-36 -23q0 -20 17.5 -32.5t17.5 -33.5q0 -23 -25.5 -43t-66.5 -20q-57 0 -87 44t-30 103z" />
<glyph unicode="{" horiz-adv-x="526" d="M72 463v115q37 -6 63 -7q33 0 53.5 12.5t32.5 32t16.5 44t4.5 49.5q0 57 -17.5 122.5t-38 134t-38 138.5t-17.5 135q0 49 12.5 101.5t41 95.5t77.5 71.5t121 28.5q47 0 90 -12v-97q-16 2 -31.5 5.5t-29.5 3.5q-47 0 -79 -15.5t-50.5 -43t-26.5 -64.5t-8 -80 q0 -74 17.5 -147.5t38 -146.5t37.5 -142.5t17 -132.5q0 -39 -9 -75t-32 -69q23 -33 32 -68.5t9 -74.5q0 -63 -17 -133t-37.5 -142.5t-38 -146.5t-17.5 -148q0 -43 8 -79.5t26.5 -64.5t50.5 -43t79 -15q14 0 29.5 3t31.5 5v-96q-43 -12 -90 -13q-72 0 -121 29t-77.5 72 t-41 95t-12.5 101q0 66 17.5 135.5t38 138t38 133t17.5 124.5q0 25 -4.5 49.5t-16.5 43.5t-32.5 31.5t-53.5 12.5q-27 0 -63 -6z" />
<glyph unicode="|" horiz-adv-x="399" d="M145 -512v2050h109v-2050h-109z" />
<glyph unicode="}" horiz-adv-x="526" d="M53 1427v97q43 12 90 12q72 0 120 -28.5t78 -71.5t42 -95.5t12 -101.5q0 -66 -17.5 -135.5t-38 -138t-37.5 -134t-17 -122.5q0 -25 4 -49.5t16 -44t32.5 -32t53.5 -12.5q27 0 64 7v-115q-37 6 -64 6q-33 0 -53.5 -12.5t-32.5 -31.5t-16 -44t-4 -49q0 -59 17 -124 t37.5 -133.5t38 -138t17.5 -135.5q0 -49 -12 -101t-42 -95t-78 -72t-120 -29q-45 0 -88 13v96q16 -2 30.5 -5t29.5 -3q94 0 129 58t35 144q0 74 -17.5 148t-38 146.5t-38 142t-17.5 133.5q0 39 9 74.5t32 68.5q-23 33 -32 69t-9 75q0 63 17.5 132.5t38 142.5t38 146.5 t17.5 147.5q0 86 -35 144.5t-129 58.5q-14 0 -29.5 -3t-32.5 -6z" />
<glyph unicode="~" horiz-adv-x="821" d="M63 1212q27 90 95.5 135.5t173.5 45.5q51 0 92 -9.5t78 -20.5t71.5 -20.5t75.5 -9.5q35 0 63.5 10.5t45.5 30.5h10q0 -33 -21.5 -65.5t-56.5 -59t-82 -43t-98 -16.5q-45 0 -87 10t-82 23.5t-79 23.5t-76 10q-70 0 -112 -49z" />
<glyph unicode="&#xa1;" horiz-adv-x="462" d="M92 801q0 57 41 96t96 39q57 0 96.5 -39t39.5 -96q0 -55 -39 -96t-97 -41q-55 0 -96 40.5t-41 96.5zM117 -508l63 961h109l57 -961h-229z" />
<glyph unicode="&#xa2;" horiz-adv-x="763" d="M57 721q0 72 14.5 154.5t51.5 156.5t99.5 128t158.5 69l-4 241h119l-7 -241q90 -10 146.5 -64.5t56.5 -152.5q0 -45 -17.5 -77t-53.5 -32q-23 0 -39.5 11.5t-30.5 27.5q16 12 24.5 40t8.5 56q0 39 -28 68t-69 37l-16 -711h12q66 0 120 24.5t95 65.5q0 -59 -20.5 -99 t-53 -66.5t-73.5 -41t-82 -20.5l-8 -350h-55l-7 348q-63 4 -124.5 28.5t-109.5 74.5t-78 130t-30 195zM252 745q0 -125 28.5 -201.5t114.5 -101.5l-12 676q-35 -25 -59.5 -65.5t-41 -92t-23.5 -108t-7 -107.5z" />
<glyph unicode="&#xa3;" horiz-adv-x="966" d="M43 702q41 139 178 170l19 601l198 45l-20 -648q57 -14 105 -30.5t106 -16.5q35 0 63.5 10.5t44.5 30.5h11q0 -33 -21.5 -65.5t-56.5 -59t-82 -43t-99 -16.5q-43 0 -75 8l-19 -569q66 20 124.5 21t119.5 5.5t129 22.5t154 74q2 -14 2 -26.5v-25.5q0 -90 -32 -140t-91 -50 h-604l20 741q-25 6 -51 7q-70 0 -113 -50z" />
<glyph unicode="&#xa4;" horiz-adv-x="935" d="M92 1008l78 73l115 -114q84 61 186 61q51 0 97 -15.5t85 -43.5l115 114l74 -73l-113 -113q61 -84 62 -188q0 -102 -62 -187l113 -112l-74 -74l-113 113q-39 -29 -85 -44.5t-99 -15.5q-104 0 -188 62l-115 -115l-74 74l115 114q-29 39 -44 85t-15 98q0 53 15 99t44 85z M233 709q0 -49 18.5 -92.5t51.5 -76t76 -51t92 -18.5t92 18.5t76 51t51.5 75.5t18.5 93q0 49 -18.5 92t-51.5 75.5t-76 51t-92 18.5t-92 -18.5t-76 -51t-51.5 -75.5t-18.5 -92z" />
<glyph unicode="&#xa5;" horiz-adv-x="1026" d="M43 1526h229l299 -785l275 785h106l-338 -897h318v-72h-318v-164h316v-71h-316v-322h-221v322h-254v71h254v164h-254v72h254z" />
<glyph unicode="&#xa6;" horiz-adv-x="399" d="M145 455h109v-967h-109v967zM145 616v922h109v-922h-109z" />
<glyph unicode="&#xa7;" horiz-adv-x="1062" d="M76 182q0 55 15 99.5t40 73t55.5 44t61.5 15.5q37 0 70.5 -22.5t46.5 -76.5q-72 -6 -93.5 -38.5t-21.5 -86.5q0 -59 17.5 -101t47 -68.5t67.5 -40t81 -13.5q33 0 67.5 9.5t64.5 32t48.5 60t18.5 97.5q0 88 -42 151.5t-106.5 113.5t-138.5 93t-138.5 90.5t-106.5 105.5 t-42 138q0 78 42 139.5t112 94.5q-31 63 -31 143q0 78 29.5 134t83 93t124 55.5t154.5 18.5q20 0 68.5 -4t97.5 -25.5t87 -67.5t38 -128q0 -57 -21.5 -90t-66.5 -33q-16 0 -36.5 6t-43.5 27q23 16 35 47.5t12 64.5q0 57 -41 102.5t-127 45.5q-98 0 -152.5 -60.5 t-54.5 -144.5q0 -78 45 -131t114 -98.5t148.5 -87t148.5 -97t114 -128t45 -179.5q0 -96 -43 -174t-129 -100q4 -16 6 -36t2 -38q0 -150 -101.5 -234t-283.5 -84q-39 0 -104.5 8.5t-128 37t-108.5 87t-46 160.5zM238 899q0 -37 34.5 -71.5t89 -70.5t122 -76t132 -89 t118.5 -107.5t85 -132.5q29 16 45.5 49t16.5 80q0 66 -32 116t-83 93t-116.5 80t-131 75t-127 81t-104.5 98q-37 -33 -43 -66.5t-6 -58.5z" />
<glyph unicode="&#xa8;" horiz-adv-x="802" d="M-133 1321q0 45 30.5 78t77.5 33q45 0 78 -33t33 -78q0 -47 -33 -78t-78 -31q-47 0 -77.5 31t-30.5 78zM193 1321q0 45 30.5 78t77.5 33q45 0 78 -33t33 -78q0 -47 -33 -78t-78 -31q-47 0 -77.5 31t-30.5 78z" />
<glyph unicode="&#xa9;" horiz-adv-x="1134" d="M72 678q0 111 39 206t106.5 165.5t157.5 111.5t192 41q100 0 190.5 -40t158 -110.5t107.5 -165.5t40 -206t-40 -206t-107.5 -165.5t-158 -111.5t-190.5 -41q-102 0 -192 41t-157.5 111.5t-106.5 165.5t-39 204zM125 678q0 -102 36 -189.5t96 -152t141 -101t173 -36.5 q90 0 171 36.5t141.5 101t96.5 151.5t36 190q0 100 -36 188t-96.5 152.5t-141 101.5t-171.5 37q-92 0 -173 -37t-141 -101.5t-96 -152.5t-36 -188zM279 688q0 70 26.5 125t69.5 95t98 61.5t111 21.5q80 0 150.5 -47t101.5 -147l-76 -29q-14 66 -66.5 99.5t-113.5 33.5 q-51 0 -91 -18.5t-67 -48t-40 -67.5t-13 -77q0 -43 13 -85t40 -73.5t65.5 -52t90.5 -20.5q47 0 97 23.5t85 76.5l69 -47q-43 -66 -115.5 -102.5t-148.5 -36.5q-61 0 -114.5 25.5t-91 68.5t-59 100.5t-21.5 120.5z" />
<glyph unicode="&#xaa;" horiz-adv-x="667" d="M82 1217q0 49 11 104t38 100t69 75t103 30q27 0 56.5 -12.5t46.5 -43.5v46h112v-371q0 -45 10.5 -73t38.5 -28h14.5t18.5 5q-2 -53 -24.5 -74t-55.5 -21q-49 0 -72.5 23.5t-29.5 71.5q-20 -41 -56 -68t-86 -27q-35 0 -68.5 14.5t-62 45t-46 81t-17.5 122.5zM203 1229 q0 -106 31.5 -146.5t76.5 -40.5q35 0 65 36t30 89v252q-10 16 -27 29.5t-39 13.5q-39 0 -65.5 -22.5t-42 -57t-22.5 -75.5t-7 -78z" />
<glyph unicode="&#xab;" horiz-adv-x="1052" d="M43 520l358 400l105 -93l-293 -309l342 -287l-63 -90zM469 520l358 400l105 -93l-293 -309l342 -287l-63 -90z" />
<glyph unicode="&#xac;" horiz-adv-x="927" d="M84 473v143h717l4 -512h-166v369h-555z" />
<glyph unicode="&#xad;" horiz-adv-x="653" d="M121 473v143h411v-143h-411z" />
<glyph unicode="&#xae;" horiz-adv-x="1134" d="M72 684q0 111 39 206t106.5 165.5t157.5 111.5t192 41q100 0 190.5 -40t158 -110.5t107.5 -165.5t40 -206t-40 -206t-107.5 -165.5t-158 -111.5t-190.5 -41q-102 0 -192 41t-157.5 111.5t-106.5 165.5t-39 204zM125 684q0 -102 36 -189t96 -151.5t141 -101.5t173 -37 q90 0 171 37t141.5 101.5t96.5 151.5t36 189q0 100 -36 188.5t-96.5 153t-141 101t-171.5 36.5q-92 0 -173 -36.5t-141 -101t-96 -153t-36 -188.5zM379 393l2 596h201q96 0 150 -40t54 -132q0 -63 -31.5 -102t-84.5 -56l129 -256l-76 -12l-127 254h-143v-252h-74zM453 717 h135q45 0 85 21.5t40 78.5q0 53 -39 73.5t-90 20.5h-131v-194z" />
<glyph unicode="&#xb0;" horiz-adv-x="649" d="M86 1104q0 72 16.5 133t47 105t76 70t104.5 26q68 0 112.5 -29t71.5 -75t38 -104.5t11 -119.5q0 -59 -12 -120.5t-41 -111t-75 -81t-113 -31.5q-104 0 -170 81t-66 257zM201 1096q0 -29 4 -71t18.5 -82t41 -68.5t71.5 -28.5q31 0 53.5 20.5t37.5 56t23.5 84t8.5 103.5 q0 76 -10.5 127t-28 81t-39 42t-43.5 12q-33 0 -58.5 -21.5t-43 -59.5t-26.5 -88t-9 -107z" />
<glyph unicode="&#xb1;" horiz-adv-x="976" d="M109 158v143h753v-143h-753zM115 719v143h291v250h167v-250h293v-143h-295v-293h-165v293h-291z" />
<glyph unicode="&#xb2;" horiz-adv-x="704" d="M84 1378q0 27 12.5 54.5t40 50t72.5 37t110 14.5q135 0 188.5 -57.5t53.5 -149.5q0 -96 -44 -163.5t-102.5 -122t-114.5 -104t-81 -106.5q66 0 124 -12t112 -12q45 0 85 17.5t74 64.5q4 -14 11.5 -31.5t7.5 -52.5q0 -49 -25.5 -79t-95.5 -30q-33 0 -69.5 6.5t-72.5 12.5 t-70 12t-60 6q-25 0 -53.5 -7t-57.5 -24q-6 14 -12 28.5t-6 39.5q0 51 23.5 97t60 89t77.5 86t78 88.5t60.5 96.5t23.5 110q0 74 -36 109t-87 35t-80.5 -28t-29.5 -64q0 -23 12 -46.5t41 -42.5q-41 -33 -80 -32q-39 0 -64.5 32.5t-25.5 77.5z" />
<glyph unicode="&#xb3;" horiz-adv-x="704" d="M84 909q0 72 31.5 106t77.5 34q23 0 44 -10.5t39 -39.5q-43 -10 -61 -40.5t-18 -61.5q0 -66 39.5 -99.5t93.5 -33.5q29 0 57.5 11t52 35t38 58.5t14.5 83.5q0 55 -19.5 92t-48.5 61.5t-61.5 39t-59.5 24.5q43 10 71.5 32t46 48.5t25 55t7.5 53.5q0 66 -40 96.5t-87 30.5 q-45 0 -80 -24.5t-35 -69.5q0 -23 9 -43.5t42 -36.5q-35 -37 -74 -37t-61.5 32.5t-22.5 75.5q0 37 19.5 66t51.5 48.5t73 29.5t84 10t84 -10t73.5 -31.5t52 -55.5t19.5 -79q0 -51 -25.5 -101.5t-86.5 -80.5q53 -14 88.5 -40t57 -55.5t30 -61.5t8.5 -60q0 -68 -24.5 -116 t-65.5 -81t-92.5 -48.5t-104.5 -15.5q-49 0 -96 13.5t-84 40t-59.5 65.5t-22.5 90z" />
<glyph unicode="&#xb4;" horiz-adv-x="587" d="M-16 1149l104 387h174l-166 -387h-112z" />
<glyph unicode="&#xb5;" horiz-adv-x="929" d="M94 -340v1364h205v-696q0 -100 35 -142.5t88 -42.5q29 0 57.5 15.5t51 44t37 69.5t14.5 95v657h204v-696q0 -20 2.5 -51t11.5 -61t27.5 -51.5t51.5 -21.5q100 0 147 224h76q-23 -129 -57.5 -204t-73.5 -114t-80 -50t-74 -11q-47 0 -81 16t-57.5 43t-37.5 61.5t-23 71.5 q-39 -100 -102 -146t-133 -46q-23 0 -43.5 3t-40.5 7v-289z" />
<glyph unicode="&#xb6;" horiz-adv-x="1058" d="M45 1104q0 80 24.5 157.5t75 138t128 97.5t184.5 37q88 0 172 -25.5t149.5 -82t104.5 -148.5t39 -225v-1219h-150v789q-63 -23 -139 -33v-756h-150v752q-104 12 -185 60t-137.5 120t-86 160t-29.5 178z" />
<glyph unicode="&#xb7;" horiz-adv-x="518" d="M90 547q0 72 48 121t120 49t121 -49.5t49 -120.5q0 -72 -49 -120t-121 -48t-120 48t-48 120z" />
<glyph unicode="&#xb8;" horiz-adv-x="464" d="M82 -389q10 25 24.5 45t43.5 20q20 0 40.5 -9t41 -21.5t41 -21.5t42.5 -9q39 0 61.5 25.5t22.5 54.5q0 35 -29.5 70.5t-93.5 35.5q-47 0 -73.5 -15t-42.5 -30l43 303l82 -47l-27 -147q61 16 104 16q154 0 154 -143q0 -45 -17.5 -79t-45 -57.5t-64.5 -35.5t-76 -12 q-78 0 -130 17t-101 40z" />
<glyph unicode="&#xb9;" horiz-adv-x="399" d="M51 1397l4 51q41 0 105.5 19.5t111.5 66.5v-827h-108v690h-113z" />
<glyph unicode="&#xba;" horiz-adv-x="616" d="M80 1214q0 47 10 101.5t37 101.5t70.5 79t111.5 32t109 -40t59 -110q25 0 43.5 20.5t24.5 37.5l20 -25q-8 -37 -24.5 -66.5t-48.5 -46.5q2 -16 2 -31.5v-31.5q0 -59 -12.5 -111.5t-35 -90.5t-56.5 -59.5t-79 -21.5q-43 0 -85 13.5t-73.5 44t-52 81t-20.5 123.5zM201 1219 q0 -94 32.5 -137.5t104.5 -43.5q41 0 68.5 57.5t27.5 155.5q0 10 -1 18.5t-1 18.5q-33 0 -44 16.5t-11 45.5q0 23 10 36t27 17q-16 35 -38 49t-48 14q-35 0 -58.5 -23.5t-39 -60t-22.5 -81t-7 -82.5z" />
<glyph unicode="&#xbb;" horiz-adv-x="1058" d="M74 829l63 91l449 -379l-359 -400l-104 92l293 310zM500 829l63 91l449 -379l-359 -400l-104 92l293 310z" />
<glyph unicode="&#xbc;" horiz-adv-x="1351" d="M45 1311l4 51q41 0 105.5 19.5t111.5 66.5v-827h-108v690h-113zM299 0l506 1536h123l-506 -1536h-123zM791 305q4 37 20 84t33.5 98.5t31 104.5t13.5 104q0 66 -11.5 91.5t-19.5 41.5q18 0 41 -9t42.5 -27.5t32.5 -46t13 -64.5q0 -43 -14.5 -83t-32.5 -79t-37.5 -75.5 t-30.5 -75.5h234v444l121 16v-460h76l-7 -64h-69v-305h-121v305h-315z" />
<glyph unicode="&#xbd;" horiz-adv-x="1372" d="M45 1311l4 51q41 0 105.5 19.5t111.5 66.5v-827h-108v690h-113zM274 0l506 1536h123l-506 -1536h-123zM778 682q0 27 12.5 54.5t40 50t72.5 37t111 14.5q135 0 188 -57.5t53 -149.5q0 -96 -44 -164t-102 -122t-114.5 -103.5t-81.5 -106.5q66 0 124.5 -12t111.5 -12 q45 0 85 17t75 65q4 -14 11 -32t7 -52q0 -49 -25.5 -79t-95.5 -30q-33 0 -69.5 6t-72.5 12.5t-69.5 12.5t-60.5 6q-25 0 -54.5 -7t-58.5 -24q-8 12 -12 27.5t-4 40.5q0 51 23.5 97t60.5 89t78 86t77.5 88t60 96.5t23.5 110.5q0 74 -35.5 108.5t-86.5 34.5t-81 -27.5 t-30 -64.5q0 -23 12.5 -46t40.5 -42q-41 -33 -80 -33t-64.5 33t-25.5 78z" />
<glyph unicode="&#xbe;" horiz-adv-x="1630" d="M59 821q0 72 32 106t77 34q23 0 44.5 -10.5t39.5 -39.5q-43 -10 -61.5 -40.5t-18.5 -61.5q0 -66 40 -99.5t93 -33.5q29 0 57.5 11t52 34.5t38 58.5t14.5 84q0 55 -19.5 92t-48 61.5t-61.5 39t-59 24.5q43 10 71.5 32t46 48.5t24.5 55t7 53.5q0 66 -40 96.5t-87 30.5 q-45 0 -80 -24.5t-35 -69.5q0 -23 9.5 -43.5t42.5 -36.5q-35 -37 -74 -37t-61.5 32.5t-22.5 75.5q0 37 19.5 66t51 48t72.5 29.5t84 10.5t84 -10.5t74 -32t52.5 -55t19.5 -78.5q0 -51 -26 -101.5t-87 -80.5q53 -14 89 -40t57.5 -55.5t29.5 -61.5t8 -61q0 -68 -24.5 -115.5 t-65.5 -80.5t-92 -48.5t-104 -15.5q-49 0 -96.5 13.5t-84.5 40t-59.5 65.5t-22.5 90zM539 0l505 1536h123l-505 -1536h-123zM1073 305q4 37 20.5 84t34 98.5t30.5 104.5t13 104q0 66 -11 91.5t-19 41.5q18 0 40.5 -9t42 -27.5t33 -46t13.5 -64.5q0 -43 -14.5 -83t-33 -79 t-38 -75.5t-29.5 -75.5h234v444l120 16v-460h76l-6 -64h-70v-305h-120v305h-316z" />
<glyph unicode="&#xbf;" horiz-adv-x="845" d="M61 -190q0 74 28 131t69 105t90 92t91 90t71.5 100.5t33.5 124.5h95q6 -31 6 -58q0 -84 -45 -150.5t-100.5 -132t-100.5 -137t-45 -168.5q0 -61 18.5 -104t49 -68.5t69.5 -38t80 -12.5q37 0 70.5 11.5t59.5 33t42 52t16 67.5q0 45 -40.5 96.5t-131.5 65.5q16 43 52 64.5 t79 21.5q35 0 71 -13.5t64.5 -41t46 -68.5t17.5 -94q0 -49 -19.5 -99.5t-62.5 -91.5t-113.5 -67.5t-170.5 -26.5q-98 0 -171 24.5t-122 67.5t-73 100.5t-24 123.5zM354 803q0 57 41 96t97 39q57 0 96 -39t39 -96q0 -55 -39 -96t-96 -41q-55 0 -96.5 41t-41.5 96z" />
<glyph unicode="&#xc0;" horiz-adv-x="1234" d="M-88 719q0 49 29.5 88t82 66.5t123 42t154.5 14.5q23 0 47.5 -1t48.5 -3q51 123 114.5 234.5t137.5 194.5t156 132t172 49q31 0 77 -6t87 -23v-1507h-226v737q-78 37 -177 62.5t-201 38.5q-25 -90 -45.5 -185.5t-35 -188.5t-22.5 -182t-8 -169q0 -90 13.5 -176.5 t58.5 -169.5q-47 0 -98.5 10t-94.5 46t-70.5 102.5t-27.5 178.5q0 72 10 160t30.5 184.5t50.5 198t67 199.5q-59 -2 -111.5 -10.5t-90.5 -23.5t-60.5 -35.5t-22.5 -45.5q0 -8 2 -12q53 -16 53 -68q0 -37 -26.5 -51t-57.5 -14q-51 0 -95 29.5t-44 103.5zM557 905 q102 -18 196.5 -46t161.5 -60v639q-51 -4 -100 -46t-95 -114t-87 -167t-76 -206zM621 2048h174l145 -387h-113z" />
<glyph unicode="&#xc1;" horiz-adv-x="1234" d="M-88 719q0 49 29.5 88t82 66.5t123 42t154.5 14.5q23 0 47.5 -1t48.5 -3q51 123 114.5 234.5t137.5 194.5t156 132t172 49q31 0 77 -6t87 -23v-1507h-226v737q-78 37 -177 62.5t-201 38.5q-25 -90 -45.5 -185.5t-35 -188.5t-22.5 -182t-8 -169q0 -90 13.5 -176.5 t58.5 -169.5q-47 0 -98.5 10t-94.5 46t-70.5 102.5t-27.5 178.5q0 72 10 160t30.5 184.5t50.5 198t67 199.5q-59 -2 -111.5 -10.5t-90.5 -23.5t-60.5 -35.5t-22.5 -45.5q0 -8 2 -12q53 -16 53 -68q0 -37 -26.5 -51t-57.5 -14q-51 0 -95 29.5t-44 103.5zM557 905 q102 -18 196.5 -46t161.5 -60v639q-51 -4 -100 -46t-95 -114t-87 -167t-76 -206zM815 1661l105 387h174l-166 -387h-113z" />
<glyph unicode="&#xc2;" horiz-adv-x="1234" d="M-88 719q0 49 29.5 88t82 66.5t123 42t154.5 14.5q23 0 47.5 -1t48.5 -3q51 123 114.5 234.5t137.5 194.5t156 132t172 49q31 0 77 -6t87 -23v-1507h-226v737q-78 37 -177 62.5t-201 38.5q-25 -90 -45.5 -185.5t-35 -188.5t-22.5 -182t-8 -169q0 -90 13.5 -176.5 t58.5 -169.5q-47 0 -98.5 10t-94.5 46t-70.5 102.5t-27.5 178.5q0 72 10 160t30.5 184.5t50.5 198t67 199.5q-59 -2 -111.5 -10.5t-90.5 -23.5t-60.5 -35.5t-22.5 -45.5q0 -8 2 -12q53 -16 53 -68q0 -37 -26.5 -51t-57.5 -14q-51 0 -95 29.5t-44 103.5zM557 905 q102 -18 196.5 -46t161.5 -60v639q-51 -4 -100 -46t-95 -114t-87 -167t-76 -206zM557 1661l340 342h43l197 -342h-45l-177 207l-288 -207h-70z" />
<glyph unicode="&#xc3;" horiz-adv-x="1234" d="M-88 719q0 49 29.5 88t82 66.5t123 42t154.5 14.5q23 0 47.5 -1t48.5 -3q51 123 114.5 234.5t137.5 194.5t156 132t172 49q31 0 77 -6t87 -23v-1507h-226v737q-78 37 -177 62.5t-201 38.5q-25 -90 -45.5 -185.5t-35 -188.5t-22.5 -182t-8 -169q0 -90 13.5 -176.5 t58.5 -169.5q-47 0 -98.5 10t-94.5 46t-70.5 102.5t-27.5 178.5q0 72 10 160t30.5 184.5t50.5 198t67 199.5q-59 -2 -111.5 -10.5t-90.5 -23.5t-60.5 -35.5t-22.5 -45.5q0 -8 2 -12q53 -16 53 -68q0 -37 -26.5 -51t-57.5 -14q-51 0 -95 29.5t-44 103.5zM528 1712 q27 90 95.5 135t173.5 45q51 0 92 -9t78 -20.5t71.5 -20.5t75.5 -9q35 0 63.5 10t45.5 31h10q0 -33 -21.5 -65.5t-56.5 -59.5t-82 -43t-98 -16q-45 0 -87 10t-82 23.5t-79 23.5t-76 10q-70 0 -112 -49zM557 905q102 -18 196.5 -46t161.5 -60v639q-51 -4 -100 -46t-95 -114 t-87 -167t-76 -206z" />
<glyph unicode="&#xc4;" horiz-adv-x="1234" d="M-88 719q0 49 29.5 88t82 66.5t123 42t154.5 14.5q23 0 47.5 -1t48.5 -3q51 123 114.5 234.5t137.5 194.5t156 132t172 49q31 0 77 -6t87 -23v-1507h-226v737q-78 37 -177 62.5t-201 38.5q-25 -90 -45.5 -185.5t-35 -188.5t-22.5 -182t-8 -169q0 -90 13.5 -176.5 t58.5 -169.5q-47 0 -98.5 10t-94.5 46t-70.5 102.5t-27.5 178.5q0 72 10 160t30.5 184.5t50.5 198t67 199.5q-59 -2 -111.5 -10.5t-90.5 -23.5t-60.5 -35.5t-22.5 -45.5q0 -8 2 -12q53 -16 53 -68q0 -37 -26.5 -51t-57.5 -14q-51 0 -95 29.5t-44 103.5zM557 905 q102 -18 196.5 -46t161.5 -60v639q-51 -4 -100 -46t-95 -114t-87 -167t-76 -206zM610 1833q0 45 31 78t78 33q45 0 77.5 -33t32.5 -78q0 -47 -32.5 -78t-77.5 -31q-47 0 -78 31t-31 78zM936 1833q0 45 30.5 78t77.5 33q45 0 78 -33t33 -78q0 -47 -32.5 -78t-78.5 -31 q-47 0 -77.5 31t-30.5 78z" />
<glyph unicode="&#xc5;" horiz-adv-x="1234" d="M-88 719q0 49 29.5 88t82 66.5t123 42t154.5 14.5q23 0 47.5 -1t48.5 -3q51 123 114.5 234.5t137.5 194.5t156 132t172 49q31 0 77 -6t87 -23v-1507h-226v737q-78 37 -177 62.5t-201 38.5q-25 -90 -45.5 -185.5t-35 -188.5t-22.5 -182t-8 -169q0 -90 13.5 -176.5 t58.5 -169.5q-47 0 -98.5 10t-94.5 46t-70.5 102.5t-27.5 178.5q0 72 10 160t30.5 184.5t50.5 198t67 199.5q-59 -2 -111.5 -10.5t-90.5 -23.5t-60.5 -35.5t-22.5 -45.5q0 -8 2 -12q53 -16 53 -68q0 -37 -26.5 -51t-57.5 -14q-51 0 -95 29.5t-44 103.5zM557 905 q102 -18 196.5 -46t161.5 -60v639q-51 -4 -100 -46t-95 -114t-87 -167t-76 -206zM692 1815q0 61 41 109t119 48q41 0 70.5 -14t50 -39t30 -55.5t9.5 -61.5q0 -61 -36 -107t-114 -46q-84 0 -127 52t-43 114zM774 1812q0 -33 21.5 -63.5t64.5 -30.5q39 0 58.5 27t19.5 61 q0 35 -19.5 67t-60.5 32t-62.5 -29t-21.5 -64z" />
<glyph unicode="&#xc6;" horiz-adv-x="1705" d="M20 715q0 51 30 91t82 67.5t123 42t155 14.5h46t48 -4q51 123 116.5 234.5t141.5 194.5t162 132t182 49q37 0 82 -6t92 -13.5t93 -13.5t83 -6q27 0 58.5 3t63.5 9.5t59.5 13.5t45.5 13q-4 -61 -19 -98t-40 -57.5t-55.5 -27.5t-65.5 -7q-63 0 -127.5 14t-126.5 31v-545 h301v-121h-301v-582h451v-143h-676v737q-78 37 -178.5 62.5t-200.5 38.5q-53 -180 -81.5 -369.5t-28.5 -355.5q0 -90 13 -176.5t58 -169.5q-49 0 -100 11t-93 47t-70 104.5t-28 185.5q0 68 10.5 153.5t30 181t49 197t66.5 199.5q-59 -2 -110.5 -10.5t-90.5 -23.5 t-60.5 -35.5t-21.5 -45.5q0 -8 2 -12q53 -16 54 -66q0 -41 -28 -54t-58 -13q-25 0 -48.5 7t-44 22.5t-33 40t-12.5 59.5zM666 905q102 -18 196 -46t162 -60v637q-53 -8 -103.5 -53.5t-95.5 -116t-85.5 -164t-73.5 -197.5z" />
<glyph unicode="&#xc7;" horiz-adv-x="1038" d="M98 717q0 141 24.5 286.5t86 263t165 193.5t261.5 76q78 0 147.5 -20.5t121.5 -60.5t83 -99.5t31 -138.5q0 -66 -24.5 -105t-84.5 -39q-29 0 -54.5 9.5t-41.5 27.5q18 14 33.5 59t15.5 103q0 98 -47 144t-125 46q-92 0 -158.5 -60.5t-109.5 -160.5t-62.5 -227t-19.5 -262 q0 -168 28.5 -287t84 -194.5t136.5 -111.5t185 -36q133 0 221 58.5t144 187.5l51 -21q-49 -174 -179 -270t-306 -109l-19 -104q61 16 105 16q153 0 153 -143q0 -45 -17.5 -79t-45 -57.5t-64.5 -35.5t-76 -12q-78 0 -130 17t-101 40q10 25 24.5 45t43.5 20q20 0 40.5 -9 t41 -21.5t41 -21.5t42.5 -9q39 0 61.5 25.5t22.5 54.5q0 35 -29.5 70.5t-92.5 35.5q-47 0 -74 -15t-43 -30l28 213q-246 12 -382 198.5t-136 549.5z" />
<glyph unicode="&#xc8;" horiz-adv-x="915" d="M84 428q0 152 72.5 262.5t203.5 163.5q-98 61 -141 141t-43 168q0 68 24.5 135.5t76 121t126 87t177.5 33.5q55 0 111.5 -12t101.5 -42t72.5 -80t27.5 -126q0 -78 -31 -123t-82 -45q-55 0 -108 55q29 12 56.5 50t27.5 98q0 39 -14.5 66.5t-38 46t-52 26.5t-59.5 8 q-55 0 -98 -24.5t-72 -64.5t-44.5 -90t-15.5 -101q0 -23 5.5 -69t29 -96t69.5 -96.5t126 -64.5q-135 -31 -208 -138.5t-73 -254.5t79 -242.5t243 -95.5q74 0 136 19.5t110.5 53t83 77.5t53.5 94l51 -21q-29 -92 -84 -163.5t-129 -121t-160 -75t-174 -25.5q-117 0 -199.5 42 t-135 107.5t-77 148.5t-24.5 167zM311 2048h174l146 -387h-113z" />
<glyph unicode="&#xc9;" horiz-adv-x="915" d="M84 428q0 152 72.5 262.5t203.5 163.5q-98 61 -141 141t-43 168q0 68 24.5 135.5t76 121t126 87t177.5 33.5q55 0 111.5 -12t101.5 -42t72.5 -80t27.5 -126q0 -78 -31 -123t-82 -45q-55 0 -108 55q29 12 56.5 50t27.5 98q0 39 -14.5 66.5t-38 46t-52 26.5t-59.5 8 q-55 0 -98 -24.5t-72 -64.5t-44.5 -90t-15.5 -101q0 -23 5.5 -69t29 -96t69.5 -96.5t126 -64.5q-135 -31 -208 -138.5t-73 -254.5t79 -242.5t243 -95.5q74 0 136 19.5t110.5 53t83 77.5t53.5 94l51 -21q-29 -92 -84 -163.5t-129 -121t-160 -75t-174 -25.5q-117 0 -199.5 42 t-135 107.5t-77 148.5t-24.5 167zM514 1661l104 387h175l-166 -387h-113z" />
<glyph unicode="&#xca;" horiz-adv-x="915" d="M84 428q0 152 72.5 262.5t203.5 163.5q-98 61 -141 141t-43 168q0 68 24.5 135.5t76 121t126 87t177.5 33.5q55 0 111.5 -12t101.5 -42t72.5 -80t27.5 -126q0 -78 -31 -123t-82 -45q-55 0 -108 55q29 12 56.5 50t27.5 98q0 39 -14.5 66.5t-38 46t-52 26.5t-59.5 8 q-55 0 -98 -24.5t-72 -64.5t-44.5 -90t-15.5 -101q0 -23 5.5 -69t29 -96t69.5 -96.5t126 -64.5q-135 -31 -208 -138.5t-73 -254.5t79 -242.5t243 -95.5q74 0 136 19.5t110.5 53t83 77.5t53.5 94l51 -21q-29 -92 -84 -163.5t-129 -121t-160 -75t-174 -25.5q-117 0 -199.5 42 t-135 107.5t-77 148.5t-24.5 167zM279 1661l339 342h44l196 -342h-45l-176 207l-289 -207h-69z" />
<glyph unicode="&#xcb;" horiz-adv-x="915" d="M84 428q0 152 72.5 262.5t203.5 163.5q-98 61 -141 141t-43 168q0 68 24.5 135.5t76 121t126 87t177.5 33.5q55 0 111.5 -12t101.5 -42t72.5 -80t27.5 -126q0 -78 -31 -123t-82 -45q-55 0 -108 55q29 12 56.5 50t27.5 98q0 39 -14.5 66.5t-38 46t-52 26.5t-59.5 8 q-55 0 -98 -24.5t-72 -64.5t-44.5 -90t-15.5 -101q0 -23 5.5 -69t29 -96t69.5 -96.5t126 -64.5q-135 -31 -208 -138.5t-73 -254.5t79 -242.5t243 -95.5q74 0 136 19.5t110.5 53t83 77.5t53.5 94l51 -21q-29 -92 -84 -163.5t-129 -121t-160 -75t-174 -25.5q-117 0 -199.5 42 t-135 107.5t-77 148.5t-24.5 167zM262 1833q0 45 31 78t78 33q45 0 77.5 -33t32.5 -78q0 -47 -32.5 -78t-77.5 -31q-47 0 -78 31t-31 78zM588 1833q0 45 30.5 78t77.5 33q45 0 78 -33t33 -78q0 -47 -33 -78t-78 -31q-47 0 -77.5 31t-30.5 78z" />
<glyph unicode="&#xcc;" horiz-adv-x="825" d="M37 1053q0 98 51 185t136 153.5t194.5 105.5t226.5 39q23 0 44.5 -1t41.5 -3v-1532h-225v1415q-137 -39 -217 -133t-80 -235q0 -55 8 -93.5t20.5 -66t30 -47t35.5 -35.5q-123 0 -194.5 56.5t-71.5 191.5zM348 2048h174l146 -387h-113z" />
<glyph unicode="&#xcd;" horiz-adv-x="825" d="M37 1053q0 98 51 185t136 153.5t194.5 105.5t226.5 39q23 0 44.5 -1t41.5 -3v-1532h-225v1415q-137 -39 -217 -133t-80 -235q0 -55 8 -93.5t20.5 -66t30 -47t35.5 -35.5q-123 0 -194.5 56.5t-71.5 191.5zM557 1661l105 387h174l-166 -387h-113z" />
<glyph unicode="&#xce;" horiz-adv-x="825" d="M37 1053q0 98 51 185t136 153.5t194.5 105.5t226.5 39q23 0 44.5 -1t41.5 -3v-1532h-225v1415q-137 -39 -217 -133t-80 -235q0 -55 8 -93.5t20.5 -66t30 -47t35.5 -35.5q-123 0 -194.5 56.5t-71.5 191.5zM319 1661l340 342h43l197 -342h-45l-176 207l-289 -207h-70z" />
<glyph unicode="&#xcf;" horiz-adv-x="825" d="M37 1053q0 98 51 185t136 153.5t194.5 105.5t226.5 39q23 0 44.5 -1t41.5 -3v-1532h-225v1415q-137 -39 -217 -133t-80 -235q0 -55 8 -93.5t20.5 -66t30 -47t35.5 -35.5q-123 0 -194.5 56.5t-71.5 191.5zM344 1833q0 45 31 78t78 33q45 0 77.5 -33t32.5 -78 q0 -47 -32.5 -78t-77.5 -31q-47 0 -78 31t-31 78zM670 1833q0 45 30.5 78t77.5 33q45 0 78 -33t33 -78q0 -47 -33 -78t-78 -31q-47 0 -77.5 31t-30.5 78z" />
<glyph unicode="&#xd0;" horiz-adv-x="1443" d="M37 1055q0 94 49 182t136 153.5t205 105.5t257 40q197 0 332 -66.5t219 -176t121 -251t37 -290.5q0 -145 -30 -284.5t-82 -249t-124 -177.5t-158 -68q-61 0 -130.5 29t-151.5 90v-92h-221v721h-131v125h131v467l221 30v-497h168v-125h-168v-561q39 -29 74.5 -41.5 t68.5 -12.5q80 0 134.5 58.5t89 152t50 208t15.5 225.5q0 190 -26.5 325t-86 221t-154 126t-227.5 40q-92 0 -176 -28.5t-147.5 -83t-101 -133.5t-37.5 -179q0 -59 13 -100t30.5 -67.5t37 -42t31.5 -23.5q-125 0 -196.5 57.5t-71.5 192.5z" />
<glyph unicode="&#xd1;" horiz-adv-x="1452" d="M41 1069q0 84 34 167t95 149.5t147 108.5t191 42q35 0 71.5 -6t71.5 -23l570 -1314v1339h137v-1532h-275l-514 1153v-1153h-137v1411q-113 -39 -176 -124t-63 -222q0 -63 10 -107.5t24.5 -74t31.5 -48t32 -30.5q-129 0 -189.5 62.5t-60.5 201.5zM530 1712q27 90 95.5 135 t173.5 45q51 0 92 -9t78 -20.5t71.5 -20.5t75.5 -9q35 0 63.5 10t45.5 31h10q0 -33 -21.5 -65.5t-56.5 -59.5t-82 -43t-98 -16q-45 0 -87 10t-82 23.5t-79 23.5t-76 10q-70 0 -112 -49z" />
<glyph unicode="&#xd2;" horiz-adv-x="1437" d="M37 1032q0 104 54 196.5t148.5 160t221.5 107.5t272 40q188 0 313 -65.5t201 -173t106.5 -246t30.5 -285.5q0 -135 -25.5 -273.5t-89 -251t-168 -183t-261.5 -70.5q-102 0 -192.5 34.5t-158 114.5t-107.5 209t-40 318q0 117 18.5 239.5t59.5 224t109.5 167t170.5 65.5 q23 0 49.5 -3.5t55.5 -13.5q-51 -31 -91 -107.5t-66.5 -177t-40 -214t-13.5 -217.5q0 -68 8 -152t34 -157.5t73 -124t125 -50.5q84 0 141 58.5t93 154t52.5 216t16.5 245.5q0 199 -36 325t-95.5 197.5t-138.5 97t-167 25.5q-102 0 -191 -28.5t-155.5 -86t-104.5 -143.5 t-38 -200q0 -59 8 -96.5t18.5 -59t20.5 -31.5t16 -12q-111 0 -174 56.5t-63 170.5zM604 2048h174l146 -387h-113z" />
<glyph unicode="&#xd3;" horiz-adv-x="1437" d="M37 1032q0 104 54 196.5t148.5 160t221.5 107.5t272 40q188 0 313 -65.5t201 -173t106.5 -246t30.5 -285.5q0 -135 -25.5 -273.5t-89 -251t-168 -183t-261.5 -70.5q-102 0 -192.5 34.5t-158 114.5t-107.5 209t-40 318q0 117 18.5 239.5t59.5 224t109.5 167t170.5 65.5 q23 0 49.5 -3.5t55.5 -13.5q-51 -31 -91 -107.5t-66.5 -177t-40 -214t-13.5 -217.5q0 -68 8 -152t34 -157.5t73 -124t125 -50.5q84 0 141 58.5t93 154t52.5 216t16.5 245.5q0 199 -36 325t-95.5 197.5t-138.5 97t-167 25.5q-102 0 -191 -28.5t-155.5 -86t-104.5 -143.5 t-38 -200q0 -59 8 -96.5t18.5 -59t20.5 -31.5t16 -12q-111 0 -174 56.5t-63 170.5zM786 1661l105 387h174l-166 -387h-113z" />
<glyph unicode="&#xd4;" horiz-adv-x="1437" d="M37 1032q0 104 54 196.5t148.5 160t221.5 107.5t272 40q188 0 313 -65.5t201 -173t106.5 -246t30.5 -285.5q0 -135 -25.5 -273.5t-89 -251t-168 -183t-261.5 -70.5q-102 0 -192.5 34.5t-158 114.5t-107.5 209t-40 318q0 117 18.5 239.5t59.5 224t109.5 167t170.5 65.5 q23 0 49.5 -3.5t55.5 -13.5q-51 -31 -91 -107.5t-66.5 -177t-40 -214t-13.5 -217.5q0 -68 8 -152t34 -157.5t73 -124t125 -50.5q84 0 141 58.5t93 154t52.5 216t16.5 245.5q0 199 -36 325t-95.5 197.5t-138.5 97t-167 25.5q-102 0 -191 -28.5t-155.5 -86t-104.5 -143.5 t-38 -200q0 -59 8 -96.5t18.5 -60t20.5 -31.5t16 -11q-111 0 -174 56.5t-63 170.5zM551 1661l340 342h43l196 -342h-45l-176 207l-288 -207h-70z" />
<glyph unicode="&#xd5;" horiz-adv-x="1437" d="M37 1032q0 104 54 196.5t148.5 160t221.5 107.5t272 40q188 0 313 -65.5t201 -173t106.5 -246t30.5 -285.5q0 -135 -25.5 -273.5t-89 -251t-168 -183t-261.5 -70.5q-102 0 -192.5 34.5t-158 114.5t-107.5 209t-40 318q0 117 18.5 239.5t59.5 224t109.5 167t170.5 65.5 q23 0 49.5 -3.5t55.5 -13.5q-51 -31 -91 -107.5t-66.5 -177t-40 -214t-13.5 -217.5q0 -68 8 -152t34 -157.5t73 -124t125 -50.5q84 0 141 58.5t93 154t52.5 216t16.5 245.5q0 199 -36 325t-95.5 197.5t-138.5 97t-167 25.5q-102 0 -191 -28.5t-155.5 -86t-104.5 -143.5 t-38 -200q0 -59 8 -96.5t18.5 -59t21.5 -31.5t15 -12q-111 0 -174 56.5t-63 170.5zM481 1712q27 90 95.5 135t173.5 45q51 0 92 -9t77.5 -20.5t71.5 -20.5t76 -9q35 0 63.5 10t45.5 31h10q0 -33 -21.5 -65.5t-56.5 -59.5t-82 -43t-98 -16q-45 0 -87 10t-82 23.5t-79 23.5 t-76 10q-70 0 -112 -49z" />
<glyph unicode="&#xd6;" horiz-adv-x="1437" d="M37 1032q0 104 54 196.5t148.5 160t221.5 107.5t272 40q188 0 313 -65.5t201 -173t106.5 -246t30.5 -285.5q0 -135 -25.5 -273.5t-89 -251t-168 -183t-261.5 -70.5q-102 0 -192.5 34.5t-158 114.5t-107.5 209t-40 318q0 117 18.5 239.5t59.5 224t109.5 167t170.5 65.5 q23 0 49.5 -3.5t55.5 -13.5q-51 -31 -91 -107.5t-66.5 -177t-40 -214t-13.5 -217.5q0 -68 8 -152t34 -157.5t73 -124t125 -50.5q84 0 141 58.5t93 154t52.5 216t16.5 245.5q0 199 -36 325t-95.5 197.5t-138.5 97t-167 25.5q-102 0 -191 -28.5t-155.5 -86t-104.5 -143.5 t-38 -200q0 -57 8 -94.5t18.5 -60t21.5 -32.5t15 -12q-111 0 -174 56.5t-63 170.5zM578 1833q0 45 30.5 78t77.5 33q45 0 78 -33t33 -78q0 -47 -33 -78t-78 -31q-47 0 -77.5 31t-30.5 78zM903 1833q0 45 31 78t78 33q45 0 77.5 -33t32.5 -78q0 -47 -32.5 -78t-77.5 -31 q-47 0 -78 31t-31 78z" />
<glyph unicode="&#xd7;" horiz-adv-x="792" d="M86 750l104 106l224 -227l196 196l99 -98l-197 -197l193 -190l-103 -107l-194 193l-218 -217l-98 98l217 217z" />
<glyph unicode="&#xd8;" horiz-adv-x="1413" d="M33 1032q0 104 54 196.5t148.5 160t221.5 107.5t272 40q23 0 44.5 -1t43.5 -3v10h66v-20q141 -27 237.5 -99.5t153.5 -174t81.5 -226.5t24.5 -256q0 -129 -24.5 -262t-81.5 -243.5t-153.5 -184.5t-237.5 -86v-135h-66v133q-100 2 -187 40t-151.5 117.5t-102.5 206.5 t-38 312q0 117 18.5 239.5t59.5 224t109.5 167t170.5 65.5q23 0 49.5 -3.5t55.5 -13.5q-51 -31 -91 -107.5t-67 -177t-40 -214t-13 -217.5q0 -68 7 -150t30.5 -154.5t68.5 -124t121 -55.5v1305q-55 14 -121 14q-102 0 -191 -28.5t-155.5 -86t-104.5 -143.5t-38 -200 q0 -57 8 -94.5t18.5 -59t20.5 -31.5t16 -14q-111 0 -174 56.5t-63 170.5zM883 150q68 20 114.5 83.5t77.5 155.5t44.5 202.5t13.5 225.5q0 143 -18.5 247.5t-52.5 177.5t-79 117t-100 68v-1277z" />
<glyph unicode="&#xd9;" horiz-adv-x="1576" d="M33 1051q0 98 51 186t138 154.5t201 105.5t239 39q23 0 43 -2t53 -8v-1102q0 -92 21.5 -148.5t56 -85t80 -38t92.5 -9.5t92 9.5t81 39t57.5 86t21.5 150.5v1104h225v-1110q0 -57 -17.5 -133t-71 -143.5t-150.5 -113.5t-255 -46t-253 46t-146 112.5t-68.5 141t-17.5 134.5 v1028q-154 -35 -238 -140.5t-84 -271.5q0 -59 10.5 -99t22.5 -66.5t24.5 -41t16.5 -22.5q-41 0 -82 15.5t-72.5 45t-51 75.5t-19.5 108zM737 2048h174l146 -387h-113z" />
<glyph unicode="&#xda;" horiz-adv-x="1576" d="M33 1051q0 98 51 186t138 154.5t201 105.5t239 39q23 0 43 -2t53 -8v-1102q0 -92 21.5 -148.5t56 -85t80 -38t92.5 -9.5t92 9.5t81 39t57.5 86t21.5 150.5v1104h225v-1110q0 -57 -17.5 -133t-71 -143.5t-150.5 -113.5t-255 -46t-253 46t-146 112.5t-68.5 141t-17.5 134.5 v1028q-154 -35 -238 -140.5t-84 -271.5q0 -59 10.5 -99t22.5 -66.5t24.5 -41t16.5 -22.5q-41 0 -82 15.5t-72.5 45t-51 75.5t-19.5 108zM930 1661l104 387h174l-166 -387h-112z" />
<glyph unicode="&#xdb;" horiz-adv-x="1576" d="M33 1051q0 98 51 186t138 154.5t201 105.5t239 39q23 0 43 -2t53 -8v-1102q0 -92 21.5 -148.5t56 -85t80 -38t92.5 -9.5t92 9.5t81 39t57.5 86t21.5 150.5v1104h225v-1110q0 -57 -17.5 -133t-71 -143.5t-150.5 -113.5t-255 -46t-253 46t-146 112.5t-68.5 141t-17.5 134.5 v1028q-154 -35 -238 -140.5t-84 -271.5q0 -59 10.5 -99t22.5 -66.5t24.5 -41t16.5 -22.5q-41 0 -82 15.5t-72.5 45t-51 75.5t-19.5 108zM717 1661l340 342h43l196 -342h-45l-176 207l-289 -207h-69z" />
<glyph unicode="&#xdc;" horiz-adv-x="1576" d="M33 1051q0 98 51 186t138 154.5t201 105.5t239 39q23 0 43 -2t53 -8v-1102q0 -92 21.5 -148.5t56 -85t80 -38t92.5 -9.5t92 9.5t81 39t57.5 86t21.5 150.5v1104h225v-1110q0 -57 -17.5 -133t-71 -143.5t-150.5 -113.5t-255 -46t-253 46t-146 112.5t-68.5 141t-17.5 134.5 v1028q-154 -35 -238 -140.5t-84 -271.5q0 -59 10.5 -99t22.5 -66.5t24.5 -41t16.5 -22.5q-41 0 -82 15.5t-72.5 45t-51 75.5t-19.5 108zM733 1833q0 45 31 78t78 33q45 0 77.5 -33t32.5 -78q0 -47 -32.5 -78t-77.5 -31q-47 0 -78 31t-31 78zM1059 1833q0 45 30.5 78t77.5 33 q45 0 78 -33t33 -78q0 -47 -33 -78t-78 -31q-47 0 -77.5 31t-30.5 78z" />
<glyph unicode="&#xdd;" horiz-adv-x="1245" d="M41 1073q0 94 34 178t97.5 147.5t154.5 100.5t203 37q23 0 43.5 -1t40.5 -3l297 -787l265 781h106l-328 -895v-631h-221v631l-321 831q-72 -18 -118 -58t-75 -91t-40 -110.5t-11 -117.5q0 -162 102 -280q-109 0 -169 61.5t-60 206.5zM838 1661l104 387h174l-166 -387 h-112z" />
<glyph unicode="&#xde;" horiz-adv-x="1228" d="M37 821q0 78 29.5 149.5t84 131t128 104.5t163.5 72v225l224 31v-223h8q129 0 231.5 -36t173 -98.5t108.5 -145.5t38 -177q0 -84 -31 -172t-92.5 -159.5t-152.5 -118t-212 -46.5h-27.5t-43.5 2v-360h-224v1208q-121 -41 -188.5 -139t-67.5 -256q0 -61 10.5 -102 t22.5 -65.5t23.5 -38t15.5 -21.5q-104 0 -162.5 62.5t-58.5 172.5zM666 420h45q80 0 143.5 34.5t107.5 93t66.5 135.5t22.5 161q0 66 -16.5 133t-59.5 123.5t-118 94.5t-191 42v-817z" />
<glyph unicode="&#xdf;" horiz-adv-x="921" d="M109 -512v1597q0 111 27.5 178.5t70.5 105.5t96 51.5t105 13.5q166 0 255 -83t89 -233q0 -72 -33 -140.5t-101 -103.5q150 -47 216.5 -160.5t66.5 -285.5q0 -113 -27.5 -193.5t-69.5 -133t-93.5 -77t-96.5 -24.5q-16 0 -33.5 1t-33.5 3v80q59 0 98 33t62.5 85t34 114.5 t10.5 123.5q0 170 -69 263.5t-204 121.5l8 78q86 20 125 85t39 132q0 92 -46 141.5t-105 49.5q-61 0 -112.5 -57.5t-53.5 -168.5v-1523z" />
<glyph unicode="&#xe0;" d="M66 457q0 94 21.5 196.5t68.5 186.5t120.5 139t178.5 55q25 0 52.5 -5t53 -17.5t48 -34t36.5 -51.5v98h205v-696q0 -20 2 -51t11 -61t27.5 -51.5t51.5 -21.5q100 0 148 224h75q-23 -129 -57.5 -204t-73.5 -114t-80 -50t-73 -11q-47 0 -81 16t-57.5 43t-38 61.5 t-22.5 73.5q-31 -80 -99.5 -137t-166.5 -57q-61 0 -124 24.5t-113 81t-81.5 145.5t-31.5 218zM248 1536h174l145 -387h-112zM281 471q0 -176 48 -252t138 -76q31 0 62.5 17.5t57 47.5t42 70.5t16.5 88.5v467q-14 33 -44 60.5t-77 27.5q-66 0 -112.5 -44t-75.5 -111 t-42 -145.5t-13 -150.5z" />
<glyph unicode="&#xe1;" d="M66 457q0 94 21.5 196.5t68.5 186.5t120.5 139t178.5 55q25 0 52.5 -5t53 -17.5t48 -34t36.5 -51.5v98h205v-696q0 -20 2 -51t11 -61t27.5 -51.5t51.5 -21.5q100 0 148 224h75q-23 -129 -57.5 -204t-73.5 -114t-80 -50t-73 -11q-47 0 -81 16t-57.5 43t-38 61.5 t-22.5 73.5q-31 -80 -99.5 -137t-166.5 -57q-61 0 -124 24.5t-113 81t-81.5 145.5t-31.5 218zM281 471q0 -176 48 -252t138 -76q31 0 62.5 17.5t57 47.5t42 70.5t16.5 88.5v467q-14 33 -44 60.5t-77 27.5q-66 0 -112.5 -44t-75.5 -111t-42 -145.5t-13 -150.5zM420 1149 l104 387h174l-166 -387h-112z" />
<glyph unicode="&#xe2;" d="M66 457q0 94 21.5 196.5t68.5 186.5t120.5 139t178.5 55q25 0 52.5 -5t53 -17.5t48 -34t36.5 -51.5v98h205v-696q0 -20 2 -51t11 -61t27.5 -51.5t51.5 -21.5q100 0 148 224h75q-23 -129 -57.5 -204t-73.5 -114t-80 -50t-73 -11q-47 0 -81 16t-57.5 43t-38 61.5 t-22.5 73.5q-31 -80 -99.5 -137t-166.5 -57q-61 0 -124 24.5t-113 81t-81.5 145.5t-31.5 218zM201 1149l340 342h43l196 -342h-45l-176 207l-289 -207h-69zM281 471q0 -176 48 -252t138 -76q31 0 62.5 17.5t57 47.5t42 70.5t16.5 88.5v467q-14 33 -44 60.5t-77 27.5 q-66 0 -112.5 -44t-75.5 -111t-42 -145.5t-13 -150.5z" />
<glyph unicode="&#xe3;" d="M66 457q0 94 21.5 196.5t68.5 186.5t120.5 139t178.5 55q25 0 52.5 -5t53 -17.5t48 -34t36.5 -51.5v98h205v-696q0 -20 2 -51t11 -61t27.5 -51.5t51.5 -21.5q100 0 148 224h75q-23 -129 -57.5 -204t-73.5 -114t-80 -50t-73 -11q-47 0 -81 16t-57.5 43t-38 61.5 t-22.5 73.5q-31 -80 -99.5 -137t-166.5 -57q-61 0 -124 24.5t-113 81t-81.5 145.5t-31.5 218zM137 1200q27 90 95.5 135t173.5 45q51 0 92 -9t77.5 -20.5t71.5 -20.5t76 -9q35 0 63.5 10t44.5 31h11q0 -33 -21.5 -65.5t-56.5 -59.5t-82 -43t-98 -16q-45 0 -87 10t-82 23.5 t-79 23.5t-76 10q-70 0 -113 -49zM281 471q0 -176 48 -252t138 -76q31 0 62.5 17.5t57 47.5t42 70.5t16.5 88.5v467q-14 33 -44 60.5t-77 27.5q-66 0 -112.5 -44t-75.5 -111t-42 -145.5t-13 -150.5z" />
<glyph unicode="&#xe4;" d="M66 457q0 94 21.5 196.5t68.5 186.5t120.5 139t178.5 55q25 0 52.5 -5t53 -17.5t48 -34t36.5 -51.5v98h205v-696q0 -20 2 -51t11 -61t27.5 -51.5t51.5 -21.5q100 0 148 224h75q-23 -129 -57.5 -204t-73.5 -114t-80 -50t-73 -11q-47 0 -81 16t-57.5 43t-38 61.5 t-22.5 73.5q-31 -80 -99.5 -137t-166.5 -57q-61 0 -124 24.5t-113 81t-81.5 145.5t-31.5 218zM258 1321q0 45 30.5 78t78.5 33q45 0 77.5 -33t32.5 -78q0 -47 -32.5 -78t-77.5 -31q-47 0 -78 31t-31 78zM281 471q0 -176 48 -252t138 -76q31 0 62.5 17.5t57 47.5t42 70.5 t16.5 88.5v467q-14 33 -44 60.5t-77 27.5q-66 0 -112.5 -44t-75.5 -111t-42 -145.5t-13 -150.5zM584 1321q0 45 30.5 78t77.5 33q45 0 78 -33t33 -78q0 -47 -33 -78t-78 -31q-47 0 -77.5 31t-30.5 78z" />
<glyph unicode="&#xe5;" d="M66 457q0 94 21.5 196.5t68.5 186.5t120.5 139t178.5 55q25 0 52.5 -5t53 -17.5t48 -34t36.5 -51.5v98h205v-696q0 -20 2 -51t11 -61t27.5 -51.5t51.5 -21.5q100 0 148 224h75q-23 -129 -57.5 -204t-73.5 -114t-80 -50t-73 -11q-47 0 -81 16t-57.5 43t-38 61.5 t-22.5 73.5q-31 -80 -99.5 -137t-166.5 -57q-61 0 -124 24.5t-113 81t-81.5 145.5t-31.5 218zM281 471q0 -176 48 -252t138 -76q31 0 62.5 17.5t57 47.5t42 70.5t16.5 88.5v467q-14 33 -44 60.5t-77 27.5q-66 0 -112.5 -44t-75.5 -111t-42 -145.5t-13 -150.5zM373 1303 q0 61 41 109t118 48q41 0 71 -14t50.5 -39t29.5 -55.5t9 -61.5q0 -61 -35.5 -107t-113.5 -46q-84 0 -127 52t-43 114zM455 1300q0 -33 21.5 -63.5t64.5 -30.5q39 0 58 27t19 61q0 35 -19 67t-60 32t-62.5 -29t-21.5 -64z" />
<glyph unicode="&#xe6;" horiz-adv-x="1263" d="M94 324q0 74 30 126t82 83.5t123.5 46t155.5 14.5q45 0 75 -2t52 -6q6 25 9.5 59.5t3.5 61.5q0 45 -11.5 87t-35 73.5t-58.5 50t-82 18.5q-92 0 -140 -35t-83 -86l-70 59q59 78 130 119t182 41q66 0 136.5 -22.5t145.5 -71.5q41 37 101.5 65.5t132.5 28.5q51 0 99 -12 t87 -43t62.5 -84t23.5 -135q0 -141 -112.5 -225t-321.5 -101q14 -152 65.5 -221.5t167.5 -69.5q98 0 184.5 51.5t139.5 172.5h66q-25 -76 -68 -144.5t-101.5 -121t-131 -83t-154.5 -30.5q-94 0 -175 45t-134 149q-12 -39 -29.5 -74.5t-46.5 -62.5t-71 -42t-103 -15 q-53 0 -110.5 14t-105.5 52t-79 102.5t-31 167.5zM309 313q0 -80 42 -125t108 -45q57 0 90 39t48 93.5t19.5 112.5t4.5 99q-23 4 -42.5 4.5t-39.5 0.5q-106 0 -168 -42t-62 -137zM805 514q145 16 227 88t82 186q0 78 -26.5 112t-75.5 34q-57 0 -96 -36t-64 -95.5t-36 -134 t-11 -154.5z" />
<glyph unicode="&#xe7;" horiz-adv-x="745" d="M72 465q0 86 15 185.5t57 184.5t116 142t191 57q129 0 196.5 -62.5t67.5 -183.5q0 -51 -19.5 -85.5t-60.5 -34.5q-45 0 -76 43q16 14 25.5 45.5t9.5 60.5q0 47 -29.5 78t-83.5 31q-55 0 -92 -41t-59.5 -103.5t-31.5 -139.5t-9 -150q0 -109 19.5 -176.5t52 -105.5 t76.5 -52.5t93 -14.5q109 0 183.5 54.5t128.5 169.5h69q-20 -63 -56 -123t-82 -109t-100.5 -84t-115.5 -51l-25 -135q61 16 105 16q154 0 154 -143q0 -45 -17.5 -79t-45.5 -57.5t-64.5 -35.5t-75.5 -12q-78 0 -130 17t-102 40q10 25 24.5 45t43.5 20q20 0 40.5 -9t41 -21.5 t41 -21.5t43.5 -9q39 0 61.5 25.5t22.5 54.5q0 35 -30 70.5t-93 35.5q-47 0 -73.5 -15t-43.5 -30l33 232q-72 0 -142.5 24.5t-127 81t-91 147.5t-34.5 224z" />
<glyph unicode="&#xe8;" horiz-adv-x="753" d="M72 461q0 86 19.5 186.5t65.5 186.5t120.5 143t185.5 57q51 0 99 -11t87 -41t62.5 -81t23.5 -133q0 -143 -117.5 -239.5t-326.5 -118.5q8 -82 29.5 -133.5t52 -81t70.5 -41t83 -11.5q98 0 184.5 51.5t139.5 172.5h65q-27 -76 -73.5 -144.5t-110 -121t-137.5 -83 t-152 -30.5q-72 0 -138 24.5t-117.5 81t-83 146.5t-31.5 221zM188 1536h174l146 -387h-113zM289 489q145 23 230 103t85 196q0 78 -26.5 112t-75.5 34q-53 0 -93 -41t-67 -105.5t-40 -143.5t-13 -155z" />
<glyph unicode="&#xe9;" horiz-adv-x="753" d="M72 461q0 86 19.5 186.5t65.5 186.5t120.5 143t185.5 57q51 0 99 -11t87 -41t62.5 -81t23.5 -133q0 -143 -117.5 -239.5t-326.5 -118.5q8 -82 29.5 -133.5t52 -81t70.5 -41t83 -11.5q98 0 184.5 51.5t139.5 172.5h65q-27 -76 -73.5 -144.5t-110 -121t-137.5 -83 t-152 -30.5q-72 0 -138 24.5t-117.5 81t-83 146.5t-31.5 221zM289 489q145 23 230 103t85 196q0 78 -26.5 112t-75.5 34q-53 0 -93 -41t-67 -105.5t-40 -143.5t-13 -155zM412 1149l104 387h174l-166 -387h-112z" />
<glyph unicode="&#xea;" horiz-adv-x="753" d="M72 461q0 86 19.5 186.5t65.5 186.5t120.5 143t185.5 57q51 0 99 -11t87 -41t62.5 -81t23.5 -133q0 -143 -117.5 -239.5t-326.5 -118.5q8 -82 29.5 -133.5t52 -81t70.5 -41t83 -11.5q98 0 184.5 51.5t139.5 172.5h65q-27 -76 -73.5 -144.5t-110 -121t-137.5 -83 t-152 -30.5q-72 0 -138 24.5t-117.5 81t-83 146.5t-31.5 221zM160 1149l340 342h43l196 -342h-45l-176 207l-289 -207h-69zM289 489q145 23 230 103t85 196q0 78 -26.5 112t-75.5 34q-53 0 -93 -41t-67 -105.5t-40 -143.5t-13 -155z" />
<glyph unicode="&#xeb;" horiz-adv-x="753" d="M72 461q0 86 19.5 186.5t65.5 186.5t120.5 143t185.5 57q51 0 99 -11t87 -41t62.5 -81t23.5 -133q0 -143 -117.5 -239.5t-326.5 -118.5q8 -82 29.5 -133.5t52 -81t70.5 -41t83 -11.5q98 0 184.5 51.5t139.5 172.5h65q-27 -76 -73.5 -144.5t-110 -121t-137.5 -83 t-152 -30.5q-72 0 -138 24.5t-117.5 81t-83 146.5t-31.5 221zM182 1321q0 45 31 78t78 33q45 0 77.5 -33t32.5 -78q0 -47 -32.5 -78t-77.5 -31q-47 0 -78 31t-31 78zM289 489q145 23 230 103t85 196q0 78 -26.5 112t-75.5 34q-53 0 -93 -41t-67 -105.5t-40 -143.5t-13 -155z M508 1321q0 45 30.5 78t77.5 33q45 0 78 -33t33 -78q0 -47 -32.5 -78t-78.5 -31q-47 0 -77.5 31t-30.5 78z" />
<glyph unicode="&#xec;" horiz-adv-x="444" d="M-72 1536h174l146 -387h-113zM96 285v739h205v-696q0 -20 2 -51t11.5 -61t27.5 -51.5t51 -21.5q100 0 148 224h75q-23 -129 -57.5 -204t-73.5 -114t-79.5 -50t-73.5 -11q-72 0 -117 27.5t-71.5 70.5t-37 96.5t-10.5 102.5z" />
<glyph unicode="&#xed;" horiz-adv-x="444" d="M96 285v739h205v-696q0 -20 2 -51t11.5 -61t27.5 -51.5t51 -21.5q100 0 148 224h75q-23 -129 -57.5 -204t-73.5 -114t-79.5 -50t-73.5 -11q-72 0 -117 27.5t-71.5 70.5t-37 96.5t-10.5 102.5zM141 1149l105 387h174l-166 -387h-113z" />
<glyph unicode="&#xee;" horiz-adv-x="444" d="M-78 1149l340 342h43l197 -342h-45l-176 207l-289 -207h-70zM96 285v739h205v-696q0 -20 2 -51t11.5 -61t27.5 -51.5t51 -21.5q100 0 148 224h75q-23 -129 -57.5 -204t-73.5 -114t-79.5 -50t-73.5 -11q-72 0 -117 27.5t-71.5 70.5t-37 96.5t-10.5 102.5z" />
<glyph unicode="&#xef;" horiz-adv-x="444" d="M-74 1321q0 45 31 78t78 33q45 0 77.5 -33t32.5 -78q0 -47 -32.5 -78t-77.5 -31q-47 0 -78 31t-31 78zM96 285v739h205v-696q0 -20 2 -51t11.5 -61t27.5 -51.5t51 -21.5q100 0 148 224h75q-23 -129 -57.5 -204t-73.5 -114t-79.5 -50t-73.5 -11q-72 0 -117 27.5 t-71.5 70.5t-37 96.5t-10.5 102.5zM252 1321q0 45 30.5 78t77.5 33q45 0 78 -33t33 -78q0 -47 -32.5 -78t-78.5 -31q-47 0 -77.5 31t-30.5 78z" />
<glyph unicode="&#xf0;" d="M66 457q0 94 21.5 196.5t68.5 186.5t120.5 139t178.5 55q25 0 52.5 -5t53 -17.5t48 -34t36.5 -51.5v112q0 94 -14 158l-144 -39l-12 62l137 36q-18 47 -47.5 89t-77.5 90h72q66 -37 113 -70t82 -70l147 41l12 -61l-118 -33q29 -49 42 -111.5t13 -152.5v-649q0 -20 2 -51 t11 -61t27.5 -51.5t51.5 -21.5q100 0 148 224h75q-23 -129 -57.5 -204t-73.5 -114t-80 -50t-73 -11q-47 0 -81 16t-57.5 43t-38 61.5t-22.5 73.5q-31 -80 -99.5 -137t-166.5 -57q-61 0 -124 24.5t-113 81t-81.5 145.5t-31.5 218zM281 471q0 -176 48 -252t138 -76 q31 0 62.5 17.5t57 47.5t42 70.5t16.5 88.5v467q-14 33 -44 60.5t-77 27.5q-66 0 -112.5 -44t-75.5 -111t-42 -145.5t-13 -150.5z" />
<glyph unicode="&#xf1;" horiz-adv-x="956" d="M94 0v1024h205v-156q31 55 62.5 89t64.5 50.5t62.5 21.5t56.5 5q92 0 148.5 -34.5t85 -89t37.5 -119t9 -123.5q0 -37 -2 -81t-4 -90t-4 -92.5t-2 -85.5q0 -16 2 -45.5t10.5 -58.5t26.5 -50.5t53 -21.5q47 0 85 53.5t63 170.5h75q-23 -129 -57.5 -204t-73.5 -114 t-77.5 -50t-71.5 -11q-66 0 -111 25.5t-73.5 68.5t-42 100.5t-13.5 118.5q0 18 1 68.5t2 108t2 108.5t1 71q0 66 -10 109t-28.5 67.5t-42 35t-50.5 10.5q-63 0 -109 -51.5t-75 -172.5v-655h-205zM131 1200q27 90 95.5 135t172.5 45q51 0 92 -9t78 -20.5t72 -20.5t76 -9 q35 0 63.5 10t44.5 31h11q0 -33 -21.5 -65.5t-56.5 -59.5t-82 -43t-98 -16q-45 0 -87 10t-82 23.5t-79 23.5t-76 10q-70 0 -113 -49z" />
<glyph unicode="&#xf2;" horiz-adv-x="858" d="M70 465q0 90 19.5 190.5t65.5 184.5t122.5 139t191.5 55q80 0 137.5 -24.5t94 -68.5t58 -103.5t32.5 -126.5h12q86 0 157.5 34.5t122.5 88.5l31 -56q-41 -66 -130 -108.5t-183 -59.5q0 -20 1 -40.5t1 -43.5q0 -252 -92.5 -395t-257.5 -143q-68 0 -136.5 24.5t-124 82 t-89 147.5t-33.5 223zM233 1536h175l145 -387h-113zM291 473q0 -100 18.5 -163.5t47 -100.5t63 -51.5t69.5 -14.5q109 0 160 107.5t51 304.5v24.5t-2 24.5q-59 4 -84.5 26.5t-25.5 76.5q0 47 20.5 66.5t61.5 21.5q-25 72 -63 99.5t-85 27.5q-63 0 -107 -42t-72 -107.5 t-40 -144.5t-12 -155z" />
<glyph unicode="&#xf3;" horiz-adv-x="858" d="M70 465q0 90 19.5 190.5t65.5 184.5t122.5 139t191.5 55q80 0 137.5 -24.5t94 -68.5t58 -103.5t32.5 -126.5h12q86 0 157.5 34.5t122.5 88.5l31 -56q-41 -66 -130 -108.5t-183 -59.5q0 -20 1 -40.5t1 -43.5q0 -252 -92.5 -395t-257.5 -143q-68 0 -136.5 24.5t-124 82 t-89 147.5t-33.5 223zM291 473q0 -100 18.5 -163.5t47 -100.5t63 -51.5t69.5 -14.5q109 0 160 107.5t51 304.5v24.5t-2 24.5q-59 4 -84.5 26.5t-25.5 76.5q0 47 20.5 66.5t61.5 21.5q-25 72 -63 99.5t-85 27.5q-63 0 -107 -42t-72 -107.5t-40 -144.5t-12 -155zM428 1149 l104 387h175l-166 -387h-113z" />
<glyph unicode="&#xf4;" horiz-adv-x="858" d="M70 465q0 90 19.5 190.5t65.5 184.5t122.5 139t191.5 55q80 0 137.5 -24.5t94 -68.5t58 -103.5t32.5 -126.5h12q86 0 157.5 34.5t122.5 88.5l31 -56q-41 -66 -130 -108.5t-183 -59.5q0 -20 1 -40.5t1 -43.5q0 -252 -92.5 -395t-257.5 -143q-68 0 -136.5 24.5t-124 82 t-89 147.5t-33.5 223zM197 1149l340 342h43l196 -342h-45l-176 207l-289 -207h-69zM291 473q0 -100 18.5 -163.5t47 -100.5t63 -51.5t69.5 -14.5q109 0 160 107.5t51 304.5v24.5t-2 24.5q-59 4 -84.5 26.5t-25.5 76.5q0 47 20.5 66.5t61.5 21.5q-25 72 -63 99.5t-85 27.5 q-63 0 -107 -42t-72 -107.5t-40 -144.5t-12 -155z" />
<glyph unicode="&#xf5;" horiz-adv-x="858" d="M70 465q0 90 19.5 190.5t65.5 184.5t122.5 139t191.5 55q80 0 137.5 -24.5t94 -68.5t58 -103.5t32.5 -126.5h12q86 0 157.5 34.5t122.5 88.5l31 -56q-41 -66 -130 -108.5t-183 -59.5q0 -20 1 -40.5t1 -43.5q0 -252 -92.5 -395t-257.5 -143q-68 0 -136.5 24.5t-124 82 t-89 147.5t-33.5 223zM141 1200q27 90 95.5 135t173.5 45q51 0 92 -9t77.5 -20.5t71.5 -20.5t76 -9q35 0 63.5 10t45.5 31h10q0 -33 -21.5 -65.5t-56.5 -59.5t-82 -43t-98 -16q-45 0 -87 10t-82 23.5t-79 23.5t-76 10q-70 0 -112 -49zM291 473q0 -100 18.5 -163.5t47 -100.5 t63 -51.5t69.5 -14.5q109 0 160 107.5t51 304.5v24.5t-2 24.5q-59 4 -84.5 26.5t-25.5 76.5q0 47 20.5 66.5t61.5 21.5q-25 72 -63 99.5t-85 27.5q-63 0 -107 -42t-72 -107.5t-40 -144.5t-12 -155z" />
<glyph unicode="&#xf6;" horiz-adv-x="858" d="M70 465q0 90 19.5 190.5t65.5 184.5t122.5 139t191.5 55q80 0 137.5 -24.5t94 -68.5t58 -103.5t32.5 -126.5h12q86 0 157.5 34.5t122.5 88.5l31 -56q-41 -66 -130 -108.5t-183 -59.5q0 -20 1 -40.5t1 -43.5q0 -252 -92.5 -395t-257.5 -143q-68 0 -136.5 24.5t-124 82 t-89 147.5t-33.5 223zM221 1321q0 45 31 78t78 33q45 0 77.5 -33t32.5 -78q0 -47 -32.5 -78t-77.5 -31q-47 0 -78 31t-31 78zM291 473q0 -100 18.5 -163.5t47 -100.5t63 -51.5t69.5 -14.5q109 0 160 107.5t51 304.5v24.5t-2 24.5q-59 4 -84.5 26.5t-25.5 76.5 q0 47 20.5 66.5t61.5 21.5q-25 72 -63 99.5t-85 27.5q-63 0 -107 -42t-72 -107.5t-40 -144.5t-12 -155zM547 1321q0 45 30.5 78t77.5 33q45 0 78 -33t33 -78q0 -47 -33 -78t-78 -31q-47 0 -77.5 31t-30.5 78z" />
<glyph unicode="&#xf7;" horiz-adv-x="856" d="M70 440v144h716v-144h-716zM293 883q0 55 39 96t96 41q55 0 96 -41t41 -96q0 -57 -41 -96t-96 -39q-57 0 -96 39t-39 96zM295 135q0 55 39 96t96 41q55 0 96 -41t41 -96q0 -57 -41 -96t-96 -39q-57 0 -96 39t-39 96z" />
<glyph unicode="&#xf8;" horiz-adv-x="858" d="M70 465q0 86 17 182t60 179t114 140.5t175 65.5v207h107v-211q59 -12 102 -41t73 -69.5t47 -94t26 -112.5h12q86 0 157.5 34.5t122.5 88.5l31 -56q-41 -66 -130 -108.5t-183 -59.5q0 -20 1 -40.5t1 -43.5q0 -229 -75 -366t-212 -166v-205h-106v201q-63 6 -125 35.5 t-109 86t-76.5 143.5t-29.5 210zM291 473q0 -100 18.5 -163.5t47 -100.5t63 -51.5t69.5 -14.5q109 0 160 107.5t51 304.5v24.5t-2 24.5q-59 4 -84.5 26.5t-25.5 76.5q0 47 20.5 66.5t61.5 21.5q-25 72 -63 99.5t-85 27.5q-63 0 -107 -42t-72 -107.5t-40 -144.5t-12 -155z " />
<glyph unicode="&#xf9;" horiz-adv-x="929" d="M94 305v719h205v-696q0 -100 35 -142.5t88 -42.5q29 0 57.5 15.5t51 44t37 69.5t14.5 95v657h204v-696q0 -20 2.5 -51t11.5 -61t27.5 -51.5t51.5 -21.5q100 0 147 224h76q-23 -129 -57.5 -204t-73.5 -114t-80 -50t-74 -11q-47 0 -81 16t-57.5 43t-37.5 61.5t-23 71.5 q-39 -100 -102 -146t-133 -46q-59 0 -112.5 16t-92.5 54t-61.5 98.5t-22.5 148.5zM150 1536h174l145 -387h-113z" />
<glyph unicode="&#xfa;" horiz-adv-x="929" d="M94 305v719h205v-696q0 -100 35 -142.5t88 -42.5q29 0 57.5 15.5t51 44t37 69.5t14.5 95v657h204v-696q0 -20 2.5 -51t11.5 -61t27.5 -51.5t51.5 -21.5q100 0 147 224h76q-23 -129 -57.5 -204t-73.5 -114t-80 -50t-74 -11q-47 0 -81 16t-57.5 43t-37.5 61.5t-23 71.5 q-39 -100 -102 -146t-133 -46q-59 0 -112.5 16t-92.5 54t-61.5 98.5t-22.5 148.5zM367 1149l104 387h174l-166 -387h-112z" />
<glyph unicode="&#xfb;" horiz-adv-x="929" d="M94 305v719h205v-696q0 -100 35 -142.5t88 -42.5q29 0 57.5 15.5t51 44t37 69.5t14.5 95v657h204v-696q0 -20 2.5 -51t11.5 -61t27.5 -51.5t51.5 -21.5q100 0 147 224h76q-23 -129 -57.5 -204t-73.5 -114t-80 -50t-74 -11q-47 0 -81 16t-57.5 43t-37.5 61.5t-23 71.5 q-39 -100 -102 -146t-133 -46q-59 0 -112.5 16t-92.5 54t-61.5 98.5t-22.5 148.5zM162 1149l340 342h43l196 -342h-45l-176 207l-289 -207h-69z" />
<glyph unicode="&#xfc;" horiz-adv-x="929" d="M94 305v719h205v-696q0 -100 35 -142.5t88 -42.5q29 0 57.5 15.5t51 44t37 69.5t14.5 95v657h204v-696q0 -20 2.5 -51t11.5 -61t27.5 -51.5t51.5 -21.5q100 0 147 224h76q-23 -129 -57.5 -204t-73.5 -114t-80 -50t-74 -11q-47 0 -81 16t-57.5 43t-37.5 61.5t-23 71.5 q-39 -100 -102 -146t-133 -46q-59 0 -112.5 16t-92.5 54t-61.5 98.5t-22.5 148.5zM160 1321q0 45 30.5 78t77.5 33q45 0 78 -33t33 -78q0 -47 -33 -78t-78 -31q-47 0 -77.5 31t-30.5 78zM485 1321q0 45 31 78t78 33q45 0 78 -33t33 -78q0 -47 -33 -78t-78 -31q-47 0 -78 31 t-31 78z" />
<glyph unicode="&#xfd;" horiz-adv-x="929" d="M94 305v719h205v-696q0 -100 35 -142.5t88 -42.5q29 0 57.5 14.5t51 42t37 66.5t14.5 90v668h204v-981q51 16 91.5 36.5t70 55.5t49 90.5t29.5 141.5h76q-16 -109 -42 -177.5t-64 -110.5t-90 -65.5t-120 -44.5v-131q0 -96 -20.5 -162.5t-56 -108.5t-81.5 -60.5t-98 -18.5 q-102 0 -159.5 58.5t-57.5 142.5q0 53 23.5 96t61.5 79t86 63.5t98 47.5v129q-41 -59 -93.5 -87.5t-105.5 -28.5q-59 0 -112.5 16t-92.5 54t-61.5 98.5t-22.5 148.5zM373 1149l104 387h174l-166 -387h-112zM393 -303q0 -47 26 -75t73 -28q55 0 72.5 42t17.5 114v144 q-102 -47 -145.5 -93.5t-43.5 -103.5z" />
<glyph unicode="&#xfe;" horiz-adv-x="968" d="M-63 1434h47q51 -31 103 -70t96 -95.5t74 -136t40 -194.5q39 43 91 69.5t122 26.5q72 0 134.5 -29.5t108.5 -92t72.5 -163t26.5 -241.5q0 -86 -17.5 -177t-59.5 -168t-112.5 -126t-177.5 -49q-53 0 -100 27.5t-84 70.5v-545l-207 -53v1505q0 76 -7 135.5t-24.5 111.5 t-48 98t-77.5 96zM301 188q29 -37 63.5 -53t59.5 -16q66 0 108.5 40t68.5 99t36 131t10 135q0 113 -19.5 185.5t-49 115.5t-66.5 59.5t-72 16.5q-45 0 -79.5 -25.5t-59.5 -72.5v-615z" />
<glyph unicode="&#xff;" horiz-adv-x="929" d="M94 305v719h205v-696q0 -100 35 -142.5t88 -42.5q29 0 57.5 15.5t51 44t37 69.5t14.5 95v657h204v-981q51 16 91.5 36.5t70 55.5t49 90.5t29.5 141.5h76q-16 -109 -42 -177.5t-64 -110.5t-90 -65.5t-120 -44.5v-131q0 -96 -20.5 -162.5t-56 -108.5t-81.5 -60.5t-98 -18.5 q-102 0 -159.5 58.5t-57.5 142.5q0 53 23.5 96t61.5 79t86 63.5t98 47.5v129q-41 -59 -93.5 -87.5t-105.5 -28.5q-59 0 -112.5 16t-92.5 54t-61.5 98.5t-22.5 148.5zM168 1321q0 45 30.5 78t77.5 33q45 0 78 -33t33 -78q0 -47 -32.5 -78t-78.5 -31q-47 0 -77.5 31t-30.5 78z M393 -303q0 -47 26 -75t73 -28q55 0 72.5 42t17.5 114v144q-102 -47 -145.5 -93.5t-43.5 -103.5zM494 1321q0 45 30.5 78t77.5 33q45 0 78 -33t33 -78q0 -47 -33 -78t-78 -31q-47 0 -77.5 31t-30.5 78z" />
<glyph unicode="&#x152;" horiz-adv-x="1808" d="M37 1032q0 104 54 196.5t148.5 160t221.5 107.5t272 40q152 0 268 -47q51 20 107.5 33.5t134.5 13.5q53 0 98 -4t89.5 -8t89.5 -8.5t96 -4.5t95 5.5t85 19.5q-2 -72 -17.5 -114t-40 -63.5t-56 -28.5t-66.5 -7q-55 0 -112.5 8t-116 19.5t-116 23.5t-108.5 19 q111 -98 160 -241.5t59 -305.5h287v-121h-287q-2 -80 -13 -161t-32.5 -156.5t-55.5 -143t-81 -121.5h584v-143h-828q-53 -12 -116 -12q-102 0 -192.5 34.5t-158 114.5t-107.5 209t-40 318q0 117 18.5 239.5t59.5 224t109.5 167t170.5 65.5q23 0 49.5 -3.5t55.5 -13.5 q-51 -31 -91 -107.5t-66.5 -177t-40 -214t-13.5 -217.5q0 -68 8 -152t34 -157.5t73 -124t125 -50.5q84 0 141 58.5t93 154t52.5 216t16.5 245.5q0 199 -36 325t-95.5 197.5t-138.5 97t-167 25.5q-102 0 -191 -28.5t-155.5 -86t-104.5 -143.5t-38 -200q0 -57 8 -94.5 t18.5 -60t21.5 -32.5t15 -12q-111 0 -174 56.5t-63 170.5z" />
<glyph unicode="&#x153;" horiz-adv-x="1386" d="M70 465q0 90 19.5 190.5t65.5 184.5t122.5 139t191.5 55q133 0 203.5 -66.5t99.5 -168.5q45 98 123 166.5t201 68.5q51 0 99 -11t87 -41t62.5 -81t23.5 -133q0 -143 -117.5 -239.5t-326.5 -118.5q8 -82 29.5 -133.5t52 -81t70.5 -41t83 -11.5q98 0 184.5 51.5 t139.5 172.5h65q-27 -76 -74 -144.5t-110.5 -121t-137 -83t-151.5 -30.5q-100 0 -189 49t-138 166q-43 -104 -117 -159.5t-178 -55.5q-68 0 -136.5 24.5t-124 82t-89 147.5t-33.5 223zM291 473q0 -100 18.5 -163.5t47 -100.5t63 -51.5t69.5 -14.5q109 0 160 107.5t51 304.5 v24.5t-2 24.5q-111 0 -110 111q0 41 23.5 59.5t58.5 20.5q-25 72 -63 99.5t-85 27.5q-63 0 -107 -42t-72 -107.5t-40 -144.5t-12 -155zM922 489q145 23 230 103t85 196q0 78 -26.5 112t-75.5 34q-53 0 -93.5 -41t-67 -105.5t-39.5 -143.5t-13 -155z" />
<glyph unicode="&#x178;" horiz-adv-x="1245" d="M41 1073q0 94 34 178t97.5 147.5t154.5 100.5t203 37q23 0 43.5 -1t40.5 -3l297 -787l265 781h106l-328 -895v-631h-221v631l-321 831q-72 -18 -118 -58t-75 -91t-40 -110.5t-11 -117.5q0 -162 102 -280q-109 0 -169 61.5t-60 206.5zM586 1833q0 45 30.5 78t77.5 33 q45 0 78 -33t33 -78q0 -47 -33 -78t-78 -31q-47 0 -77.5 31t-30.5 78zM911 1833q0 45 31 78t78 33q45 0 77.5 -33t32.5 -78q0 -47 -32.5 -78t-77.5 -31q-47 0 -78 31t-31 78z" />
<glyph unicode="&#x2c6;" horiz-adv-x="600" d="M-233 1149l339 342h44l196 -342h-45l-176 207l-289 -207h-69z" />
<glyph unicode="&#x2dc;" horiz-adv-x="825" d="M-166 1200q27 90 95.5 135t172.5 45q51 0 92.5 -9t78 -20.5t71.5 -20.5t76 -9q35 0 63.5 10t44.5 31h11q0 -33 -21.5 -65.5t-56.5 -59.5t-82 -43t-98 -16q-45 0 -87 10t-82 23.5t-79 23.5t-76 10q-70 0 -113 -49z" />
<glyph unicode="&#x2000;" horiz-adv-x="1024" />
<glyph unicode="&#x2001;" horiz-adv-x="2048" />
<glyph unicode="&#x2002;" horiz-adv-x="1024" />
<glyph unicode="&#x2003;" horiz-adv-x="2048" />
<glyph unicode="&#x2004;" horiz-adv-x="682" />
<glyph unicode="&#x2005;" horiz-adv-x="512" />
<glyph unicode="&#x2006;" horiz-adv-x="341" />
<glyph unicode="&#x2007;" horiz-adv-x="341" />
<glyph unicode="&#x2008;" horiz-adv-x="256" />
<glyph unicode="&#x2009;" horiz-adv-x="409" />
<glyph unicode="&#x200a;" horiz-adv-x="113" />
<glyph unicode="&#x2010;" horiz-adv-x="651" d="M121 473v143h409v-143h-409z" />
<glyph unicode="&#x2011;" horiz-adv-x="651" d="M121 473v143h409v-143h-409z" />
<glyph unicode="&#x2012;" horiz-adv-x="651" d="M121 473v143h409v-143h-409z" />
<glyph unicode="&#x2013;" horiz-adv-x="776" d="M121 473v143h534v-143h-534z" />
<glyph unicode="&#x2014;" horiz-adv-x="960" d="M121 473v143h719v-143h-719z" />
<glyph unicode="&#x2018;" horiz-adv-x="425" d="M76 1176q0 49 15 103t41 104.5t59.5 90t72.5 58.5q18 -10 23.5 -23.5t5.5 -25.5q0 -20 -7 -42t-15.5 -42.5t-15.5 -41t-7 -38.5q0 -31 8 -44t19.5 -20.5t25.5 -10.5t25.5 -14t19.5 -32.5t8 -64.5q0 -27 -12 -49.5t-31.5 -38t-43 -24.5t-46.5 -9q-78 0 -111.5 47 t-33.5 117z" />
<glyph unicode="&#x2019;" horiz-adv-x="419" d="M72 1411q0 27 12 49.5t31.5 37.5t43 24.5t46.5 9.5q78 0 111.5 -47t33.5 -117q0 -49 -15.5 -103.5t-41 -104.5t-59 -90t-72.5 -58q-18 10 -23.5 23.5t-5.5 25.5q0 20 7 41.5t15.5 42t15.5 41t7 39.5q0 31 -8 44t-19.5 20t-25.5 10.5t-25.5 14.5t-19.5 32.5t-8 64.5z" />
<glyph unicode="&#x201a;" horiz-adv-x="442" d="M80 141q0 27 12 49.5t31.5 38t43 24.5t46.5 9q78 0 111.5 -47t33.5 -117q0 -49 -15 -103t-41 -104.5t-59.5 -90.5t-72.5 -58q-18 10 -23.5 23.5t-5.5 25.5q0 20 7.5 42t15.5 42.5t15 41t7 38.5q0 31 -8 44t-19.5 20.5t-25.5 10.5t-25.5 14t-19.5 32.5t-8 64.5z" />
<glyph unicode="&#x201c;" horiz-adv-x="870" d="M76 1176q0 49 15 103t41 104.5t59.5 90t72.5 58.5q18 -10 23.5 -23.5t5.5 -25.5q0 -20 -7 -42t-15.5 -42.5t-15.5 -41t-7 -38.5q0 -31 8 -44t19.5 -20.5t25.5 -10.5t25.5 -14t19.5 -32.5t8 -64.5q0 -27 -12 -49.5t-31.5 -38t-43 -24.5t-46.5 -9q-78 0 -111.5 47 t-33.5 117zM520 1176q0 49 15.5 103t41 104.5t59.5 90t73 58.5q18 -10 23 -23.5t5 -25.5q0 -20 -7 -42t-15 -42.5t-15.5 -41t-7.5 -38.5q0 -31 8.5 -44t19.5 -20.5t25.5 -10.5t25.5 -14t19.5 -32.5t8.5 -64.5q0 -27 -12.5 -49.5t-32 -38t-43 -24.5t-45.5 -9q-78 0 -112 47 t-34 117z" />
<glyph unicode="&#x201d;" horiz-adv-x="864" d="M72 1411q0 27 12 49.5t31.5 37.5t43 24.5t46.5 9.5q78 0 111.5 -47t33.5 -117q0 -49 -15.5 -103.5t-41 -104.5t-59 -90t-72.5 -58q-18 10 -23.5 23.5t-5.5 25.5q0 20 7 41.5t15.5 42t15.5 41t7 39.5q0 31 -8 44t-19.5 20t-25.5 10.5t-25.5 14.5t-19.5 32.5t-8 64.5z M516 1411q0 27 12.5 49.5t32 37.5t43 24.5t45.5 9.5q78 0 112 -47t34 -117q0 -49 -15.5 -103.5t-41 -104.5t-59.5 -90t-73 -58q-18 10 -23 23.5t-5 25.5q0 20 7 41.5t15 42t15.5 41t7.5 39.5q0 31 -8.5 44t-19.5 20t-25.5 10.5t-26 14.5t-19.5 32.5t-8 64.5z" />
<glyph unicode="&#x201e;" horiz-adv-x="890" d="M80 141q0 27 12 49.5t31.5 38t43 24.5t46.5 9q78 0 111.5 -47t33.5 -117q0 -49 -15 -103t-41 -104.5t-59.5 -90.5t-72.5 -58q-18 10 -23.5 23.5t-5.5 25.5q0 20 7.5 42t15.5 42.5t15 41t7 38.5q0 31 -8 44t-19.5 20.5t-25.5 10.5t-25.5 14t-19.5 32.5t-8 64.5zM528 141 q0 27 12.5 49.5t32 38t43 24.5t46.5 9q78 0 111.5 -47t33.5 -117q0 -49 -15.5 -103t-41 -104.5t-59.5 -90.5t-73 -58q-18 10 -23 23.5t-5 25.5q0 20 7 42t15.5 42.5t15.5 41t7 38.5q0 31 -8.5 44t-19.5 20.5t-25.5 10.5t-25.5 14t-19.5 32.5t-8.5 64.5z" />
<glyph unicode="&#x2022;" horiz-adv-x="518" d="M90 547q0 72 48 121t120 49t121 -49.5t49 -120.5q0 -72 -49 -120t-121 -48t-120 48t-48 120z" />
<glyph unicode="&#x2026;" horiz-adv-x="1415" d="M78 125q0 55 39 96t96 41q55 0 96 -41t41 -96q0 -57 -41 -96t-96 -39q-57 0 -96 39t-39 96zM563 125q0 55 39 96t96 41q55 0 96.5 -41t41.5 -96q0 -57 -41 -96t-97 -39q-57 0 -96 39t-39 96zM1065 125q0 55 39 96t96 41q55 0 96 -41t41 -96q0 -57 -41 -96t-96 -39 q-57 0 -96 39t-39 96z" />
<glyph unicode="&#x202f;" horiz-adv-x="409" />
<glyph unicode="&#x2039;" horiz-adv-x="626" d="M43 520l358 400l105 -93l-293 -309l342 -287l-63 -90z" />
<glyph unicode="&#x203a;" horiz-adv-x="632" d="M74 829l63 91l449 -379l-359 -400l-104 92l293 310z" />
<glyph unicode="&#x205f;" horiz-adv-x="512" />
<glyph unicode="&#x20ac;" horiz-adv-x="1261" d="M57 602v82h146v33v59.5t4 61.5h-150v82h156q14 119 50 229.5t98.5 196.5t155.5 138t222 52q78 0 147.5 -20.5t122 -60.5t83 -99.5t30.5 -138.5q0 -66 -24.5 -105t-83.5 -39q-29 0 -54.5 9.5t-41.5 27.5q18 14 33.5 59t15.5 103q0 98 -47.5 144t-124.5 46 q-78 0 -137.5 -44t-101.5 -117.5t-67.5 -172t-35.5 -208.5h428v-82h-435q-2 -23 -2 -43.5v-42.5v-68h437v-82h-430q25 -254 135 -366.5t293 -112.5q188 0 288 119l54 -52q-74 -111 -194 -167t-267 -56q-244 0 -387.5 158t-165.5 477h-150z" />
<glyph unicode="&#x2122;" horiz-adv-x="991" d="M102 1219q0 49 41 89t142 40q49 0 81.5 -7.5t71.5 -7.5q25 0 42.5 4t29.5 9q2 -8 2 -23q0 -49 -66 -49q-23 0 -48 5t-52 9v-401h-65v411q-10 2 -27 2q-51 0 -77.5 -18t-26.5 -68q0 -35 7 -54t17 -32q-33 0 -52.5 19.5t-19.5 71.5zM522 887l66 452h59l66 -358l67 358h70 l45 -452h-72l-35 319l-61 -319h-65l-56 315l-47 -315h-37z" />
<glyph unicode="&#x25fc;" horiz-adv-x="1146" d="M0 0v1147h1147v-1147h-1147z" />
</font>
</defs>
</svg>
